<?xml version="1.0" encoding="UTF-8"?>
<svg version="1.1" xmlns="http://www.w3.org/2000/svg" width="625" height="625">
<path d="M0 0 C5.68198505 3.86561278 9.70885691 9.20169706 13.75 14.6875 C12.9375 16.625 12.9375 16.625 11.75 18.6875 C10.76 19.0175 9.77 19.3475 8.75 19.6875 C8.78480469 20.41453125 8.81960937 21.1415625 8.85546875 21.890625 C9.17574176 33.78647963 7.14001449 45.52748344 -0.875 54.6875 C-5.39973037 57.3688217 -9.10839797 57.30697012 -14.25 56.6875 C-15.24 56.3575 -16.23 56.0275 -17.25 55.6875 C-17.37375 56.409375 -17.4975 57.13125 -17.625 57.875 C-18.25 60.6875 -18.25 60.6875 -19.375 62.875 C-22.69561589 73.54840821 -15.71036238 84.31921539 -11.25 93.6875 C-10.49082166 95.31055975 -9.73299709 96.93425345 -8.9765625 98.55859375 C-5.67656363 105.65349227 -5.67656363 105.65349227 -2.25 112.6875 C-0.36235097 113.37222665 -0.36235097 113.37222665 1.8125 113.8125 C2.54597656 113.98007812 3.27945313 114.14765625 4.03515625 114.3203125 C4.60105469 114.44148438 5.16695312 114.56265625 5.75 114.6875 C6.0903125 112.9240625 6.0903125 112.9240625 6.4375 111.125 C7.97200474 104.13572295 10.43513395 97.44934558 12.75 90.6875 C25.125 90.1925 25.125 90.1925 37.75 89.6875 C38.19915771 87.78427979 38.64831543 85.88105957 39.11108398 83.92016602 C40.59290585 77.64499613 42.07804012 71.3706176 43.56545925 65.09677219 C44.46750688 61.29144449 45.36820511 57.48580773 46.26586914 53.67944336 C47.13157073 50.00882805 48.00075183 46.33905299 48.87239265 42.66984367 C49.20497799 41.26705461 49.53629018 39.86396308 49.8663311 38.4605732 C50.32739629 36.50100476 50.79333548 34.54258502 51.25952148 32.58422852 C51.52377426 31.46726089 51.78802704 30.35029327 52.06028748 29.19947815 C52.75 26.6875 52.75 26.6875 53.75 25.6875 C55.77494231 25.59340521 57.8031987 25.57006878 59.83032227 25.57397461 C61.78223228 25.57408791 61.78223228 25.57408791 63.77357483 25.57420349 C65.20451902 25.57931091 66.63546282 25.58452692 68.06640625 25.58984375 C69.5222926 25.59170797 70.97817957 25.59313185 72.43406677 25.59413147 C76.27279379 25.59795635 80.11148319 25.60778636 83.95019531 25.61883545 C87.86457816 25.62905022 91.77896706 25.63362923 95.69335938 25.63867188 C103.37892343 25.64940866 111.06445645 25.66648471 118.75 25.6875 C118.75 24.6975 118.75 23.7075 118.75 22.6875 C117.079375 22.749375 117.079375 22.749375 115.375 22.8125 C111.75 22.6875 111.75 22.6875 109.75 20.6875 C109.29972321 17.20696051 109.42592028 13.69383808 109.4375 10.1875 C109.41333008 8.72376953 109.41333008 8.72376953 109.38867188 7.23046875 C109.38802734 6.29847656 109.38738281 5.36648437 109.38671875 4.40625 C109.38224731 3.12137695 109.38224731 3.12137695 109.37768555 1.81054688 C109.50054932 1.10994141 109.62341309 0.40933594 109.75 -0.3125 C113.63861593 -2.90491062 116.9291855 -2.64322277 121.4375 -2.625 C122.21544922 -2.64111328 122.99339844 -2.65722656 123.79492188 -2.67382812 C124.56771484 -2.67447266 125.34050781 -2.67511719 126.13671875 -2.67578125 C126.82983154 -2.67876221 127.52294434 -2.68174316 128.23706055 -2.68481445 C130.75 -2.3125 130.75 -2.3125 138.75 0.6875 C138.75 7.2875 138.75 13.8875 138.75 20.6875 C132 22.9375 132 22.9375 127.75 22.6875 C127.75 23.6775 127.75 24.6675 127.75 25.6875 C146.89 25.6875 166.03 25.6875 185.75 25.6875 C181.15471811 47.51508899 181.15471811 47.51508899 179.55175781 54.18823242 C179.36585587 54.97129257 179.17995392 55.75435272 178.98841858 56.56114197 C178.3956286 59.05564032 177.79944531 61.54931226 177.203125 64.04296875 C176.78264231 65.80938183 176.36237904 67.57584715 175.94232178 69.34236145 C174.85293855 73.92112252 173.76064062 78.49918307 172.66766357 83.0770874 C171.54615815 87.77687074 170.42750814 92.47733363 169.30859375 97.17773438 C167.12513714 106.34831148 164.93832596 115.51808362 162.75 124.6875 C146.91 125.1825 146.91 125.1825 130.75 125.6875 C134.91094048 135.70893157 134.91094048 135.70893157 142.84949493 142.62466431 C148.94848892 144.04232273 155.19944893 143.67367775 161.4140625 143.46875 C163.19099919 143.46509354 164.96796566 143.46865204 166.74487305 143.47949219 C173.28896467 143.46934412 179.83224625 143.32020842 186.375 143.1875 C208.340625 142.94 208.340625 142.94 230.75 142.6875 C230.75 196.8075 230.75 250.9275 230.75 306.6875 C242.3 306.6875 253.85 306.6875 265.75 306.6875 C265.09 301.7375 264.43 296.7875 263.75 291.6875 C263.36830388 288.06044598 263.00324433 284.44027954 262.6796875 280.80859375 C262.59373322 279.86742203 262.50777893 278.92625031 262.41921997 277.95655823 C262.241323 276.00006784 262.06496145 274.04343723 261.89013672 272.08666992 C261.6226164 269.09837437 261.34872761 266.11070772 261.07421875 263.12304688 C260.90066647 261.20576309 260.72747608 259.28844651 260.5546875 257.37109375 C260.47346649 256.48667099 260.39224548 255.60224823 260.30856323 254.69102478 C259.92349498 250.33947965 259.65813517 246.0617823 259.75 241.6875 C262.39 241.6875 265.03 241.6875 267.75 241.6875 C261.78758095 217.00746371 261.78758095 217.00746371 246.87109375 197.296875 C243.83677607 195.74803535 240.79841446 194.20837198 237.75 192.6875 C241.08499555 189.37277798 243.7435199 186.98767828 248.3125 185.625 C252.57621683 185.70252212 254.30662081 186.12328146 257.75 188.6875 C264.71589674 196.70183528 266.41835445 207.63872669 268.75 217.6875 C269.07498686 199.43994898 269.07498686 199.43994898 260.75 183.6875 C260.3389502 183.18573242 259.92790039 182.68396484 259.50439453 182.16699219 C254.14821513 175.71726779 248.26707393 170.15833469 241.55078125 165.11328125 C240.95652344 164.64277344 240.36226563 164.17226563 239.75 163.6875 C239.75 163.3575 239.75 163.0275 239.75 162.6875 C250.01340459 162.01814753 258.41914994 165.93600929 266.75 171.6875 C267.41 172.3475 268.07 173.0075 268.75 173.6875 C269.27787109 171.82158203 269.27787109 171.82158203 269.81640625 169.91796875 C273.8744943 156.04179074 278.51120728 144.38676407 290.75 135.6875 C291.41 135.6875 292.07 135.6875 292.75 135.6875 C291.55604006 143.00040104 290.28448046 150.29512263 288.94799805 157.58325195 C287.1004771 167.69812747 285.3431262 177.81336484 283.9375 188 C283.75199585 189.32233643 283.75199585 189.32233643 283.56274414 190.67138672 C282.93671972 195.38979857 282.62796697 199.92821182 282.75 204.6875 C283.12125 203.511875 283.4925 202.33625 283.875 201.125 C288.59373957 187.18825754 293.33755715 173.68652107 305.75 164.6875 C306.41 165.0175 307.07 165.3475 307.75 165.6875 C307.37488281 166.63367188 306.99976563 167.57984375 306.61328125 168.5546875 C303.66234782 176.13256054 301.03861026 183.72010805 298.875 191.5625 C298.66012939 192.34093262 298.44525879 193.11936523 298.22387695 193.92138672 C297.13605825 197.74999834 297.13605825 197.74999834 296.75 201.6875 C297.53375 201.1925 298.3175 200.6975 299.125 200.1875 C301.75 198.6875 301.75 198.6875 303.75 198.6875 C303.99234375 197.96691406 304.2346875 197.24632812 304.484375 196.50390625 C307.60818493 189.55246501 314.04471076 183.27405006 320.75 179.6875 C328.47248082 177.34346216 335.38897673 178.49252045 342.71875 181.51953125 C344.75 182.6875 344.75 182.6875 346.75 185.6875 C345.87859375 185.83445312 345.0071875 185.98140625 344.109375 186.1328125 C333.30623745 188.16716957 324.28523916 191.54135943 315.75 198.6875 C316.38808594 199.02523437 317.02617188 199.36296875 317.68359375 199.7109375 C318.92302734 200.37996094 318.92302734 200.37996094 320.1875 201.0625 C321.42306641 201.72378906 321.42306641 201.72378906 322.68359375 202.3984375 C324.75 203.6875 324.75 203.6875 325.75 205.6875 C325.08355469 205.84863281 324.41710937 206.00976562 323.73046875 206.17578125 C314.15597622 209.00126086 307.47739969 214.95168966 302.08984375 223.2421875 C299.02450231 229.11039465 296.87954169 235.42974063 294.75 241.6875 C296.4 241.6875 298.05 241.6875 299.75 241.6875 C299.89721227 250.0190133 299.48249337 258.16479408 298.65625 266.453125 C298.55795898 267.4829248 298.45966797 268.51272461 298.35839844 269.57373047 C297.99513834 273.36225384 297.62201596 277.14982639 297.25 280.9375 C296.425 289.435 295.6 297.9325 294.75 306.6875 C318.18 306.6875 341.61 306.6875 365.75 306.6875 C365.75 308.0075 365.75 309.3275 365.75 310.6875 C267.08 311.0175 168.41 311.3475 66.75 311.6875 C68.235 314.6575 68.235 314.6575 69.75 317.6875 C69.75 319.0075 69.75 320.3275 69.75 321.6875 C70.98935303 321.67702637 72.22870605 321.66655273 73.50561523 321.65576172 C101.98550912 321.43760506 130.32844481 321.77715404 158.75 323.6875 C159.88994415 323.76387695 159.88994415 323.76387695 161.05291748 323.84179688 C287.44649025 332.44476804 287.44649025 332.44476804 311.26171875 359.3984375 C313.8305132 363.17055427 314.0759438 366.35773578 313.5 370.6953125 C310.41683353 378.88497344 301.24672516 383.12272024 293.75439453 386.61865234 C248.33948368 406.27874038 192.69822556 409.09735039 143.85653687 411.58035278 C142.35806642 411.65657122 140.85972545 411.73535395 139.36148071 411.81588745 C120.51486386 412.80946886 101.67916024 412.88764754 82.8125 412.875 C82.02078148 412.87488041 81.22906296 412.87476082 80.41335297 412.8746376 C55.1435867 412.86981584 29.96233601 412.54230586 4.75 410.6875 C3.29997132 410.58458082 1.84993876 410.48171629 0.39990234 410.37890625 C-122.15082 401.5230927 -122.15082 401.5230927 -146.75 375.1875 C-149.19437894 372.08947098 -150.33615432 369.73675319 -150.25 365.6875 C-147.75539222 357.8710623 -140.82312784 353.31589176 -133.875 349.625 C-103.77198118 335.49195131 -69.12256918 331.33457821 -36.4375 327.4375 C-35.74778107 327.35441589 -35.05806213 327.27133179 -34.34744263 327.18572998 C-23.99560382 325.95251591 -13.65951331 325.20712845 -3.25 324.6875 C-3.55679688 323.78628418 -3.86359375 322.88506836 -4.1796875 321.95654297 C-7.25 312.9375 -7.25 312.9375 -7.25 310.6875 C-44.21 310.6875 -81.17 310.6875 -119.25 310.6875 C-119.91 313.6575 -120.57 316.6275 -121.25 319.6875 C-121.70951515 321.29057623 -122.19328553 322.88736637 -122.72265625 324.46875 C-122.98240234 325.24734375 -123.24214844 326.0259375 -123.50976562 326.828125 C-123.77466797 327.60671875 -124.03957031 328.3853125 -124.3125 329.1875 C-124.58126953 329.99703125 -124.85003906 330.8065625 -125.12695312 331.640625 C-127.11615044 337.55365044 -127.11615044 337.55365044 -128.25 338.6875 C-130.58297433 338.72842937 -132.91705225 338.72991723 -135.25 338.6875 C-134.60227461 332.79050014 -133.56464049 327.0950129 -132.25 321.3125 C-132.07210937 320.50683594 -131.89421875 319.70117188 -131.7109375 318.87109375 C-130.38245631 312.95241261 -130.38245631 312.95241261 -129.25 310.6875 C-149.38 310.6875 -169.51 310.6875 -190.25 310.6875 C-190.25 309.3675 -190.25 308.0475 -190.25 306.6875 C-169.79 306.6875 -149.33 306.6875 -128.25 306.6875 C-127.26 301.7375 -126.27 296.7875 -125.25 291.6875 C-124.36991486 287.76570315 -123.47687084 283.8520111 -122.55078125 279.94140625 C-122.3108696 278.91941635 -122.07095795 277.89742645 -121.82377625 276.84446716 C-121.07233149 273.64576185 -120.31748886 270.44787043 -119.5625 267.25 C-119.04599653 265.05408994 -118.52971881 262.85812677 -118.01367188 260.66210938 C-116.76171376 255.33662431 -115.50671216 250.01186512 -114.25 244.6875 C-117.55 244.6875 -120.85 244.6875 -124.25 244.6875 C-124.43175781 243.78128906 -124.61351563 242.87507812 -124.80078125 241.94140625 C-125.05214844 240.72324219 -125.30351563 239.50507813 -125.5625 238.25 C-125.80613281 237.05503906 -126.04976563 235.86007812 -126.30078125 234.62890625 C-126.91871138 231.85010294 -127.73382234 229.22434991 -128.68675232 226.54290771 C-130.29293251 221.77259775 -131.30754393 217.00482052 -132.21118164 212.05957031 C-132.38397141 211.1427951 -132.55676117 210.2260199 -132.73478699 209.28146362 C-133.29937492 206.2772951 -133.85490636 203.27153221 -134.41015625 200.265625 C-134.80414681 198.15719506 -135.19864079 196.04885913 -135.59361267 193.94061279 C-136.41857009 189.53012928 -137.23938704 185.11890343 -138.05688477 180.70703125 C-139.09896856 175.0834124 -140.14832779 169.46118445 -141.20044804 163.83943558 C-142.2105117 158.44032761 -143.21662982 153.04048639 -144.22265625 147.640625 C-144.50681239 146.11854305 -144.50681239 146.11854305 -144.79670906 144.56571198 C-152.44026905 103.5711112 -152.44026905 103.5711112 -145.6875 91.0625 C-140.79808787 84.03544634 -133.90780046 80.09196804 -125.6484375 78.16015625 C-105.44235569 75.3498851 -88.61736135 79.40682058 -71.25 89.6875 C-70.82589844 88.63691406 -70.40179688 87.58632813 -69.96484375 86.50390625 C-65.3973615 75.45957364 -60.49653973 67.00694723 -51.14453125 59.29296875 C-45.70107397 54.68005959 -40.74147409 49.46702135 -38.25 42.6875 C-38.77509731 39.1753737 -39.87011521 36.26246361 -41.1640625 32.9609375 C-43.3105904 26.4904685 -42.37672674 19.67597601 -39.75 13.4375 C-35.61108681 6.29117507 -28.73677134 0.99272242 -20.984375 -1.6796875 C-13.67624327 -3.37099798 -6.73461876 -3.60783148 0 0 Z M86.75 132.6875 C85.76 135.9875 84.77 139.2875 83.75 142.6875 C87.05 142.6875 90.35 142.6875 93.75 142.6875 C92.41749209 139.0999787 90.919283 135.8510377 88.75 132.6875 C88.09 132.6875 87.43 132.6875 86.75 132.6875 Z M-16.25 138.6875 C-16.25 140.0075 -16.25 141.3275 -16.25 142.6875 C-15.26 142.3575 -14.27 142.0275 -13.25 141.6875 C-14.24 140.6975 -15.23 139.7075 -16.25 138.6875 Z M-18.25 152.6875 C-18.745 160.1125 -18.745 160.1125 -19.25 167.6875 C-16.62826194 168.99836903 -15.2317672 168.56413033 -12.33569336 168.15844727 C-11.30959457 168.01822647 -10.28349579 167.87800568 -9.2263031 167.73353577 C-8.10877151 167.57525803 -6.99123993 167.41698029 -5.83984375 167.25390625 C-3.46292728 166.93137038 -1.08597283 166.60911429 1.29101562 166.28710938 C5.02998733 165.77336312 8.76841667 165.25616858 12.50610352 164.7331543 C52.65899167 159.141974 52.65899167 159.141974 61.75 165.6875 C64.8167099 168.92537511 65.11201669 171.16024401 65 175.5625 C64.97421875 176.61695313 64.9484375 177.67140625 64.921875 178.7578125 C64.74383883 181.79251996 64.40993548 184.71779035 63.75 187.6875 C64.76320313 188.14189453 64.76320313 188.14189453 65.796875 188.60546875 C74.81710589 192.84184887 74.81710589 192.84184887 77.75 197.6875 C86.57450386 224.16101159 63.35425865 269.88709727 54.57836914 295.0925293 C53.54302446 298.09197882 52.75 300.48838057 52.75 303.6875 C58.59822526 306.69978128 63.29613614 307.10449085 69.81616211 307.02807617 C70.81813661 307.02843778 71.8201111 307.02879938 72.85244846 307.02917194 C76.07762083 307.02694287 79.30226512 307.00414332 82.52734375 306.98046875 C84.52575429 306.97605478 86.5241683 306.97299617 88.52258301 306.97131348 C95.91094176 306.95562094 103.29922613 306.9137371 110.6875 306.875 C127.208125 306.813125 143.72875 306.75125 160.75 306.6875 C160.75 255.8675 160.75 205.0475 160.75 152.6875 C136.928125 152.605 113.10625 152.5225 88.5625 152.4375 C81.03800049 152.40108398 73.51350098 152.36466797 65.76098633 152.32714844 C59.02175507 152.3137715 59.02175507 152.3137715 52.28251648 152.3057251 C49.27844958 152.30199527 46.27466483 152.28699321 43.27067566 152.26519775 C39.43884802 152.23776413 35.60743074 152.22953459 31.77551401 152.2352109 C30.36925218 152.23402394 28.96297603 152.22608966 27.55679858 152.21063948 C25.65664727 152.19073168 23.75626967 152.19793047 21.85603333 152.20648193 C20.79136243 152.20279476 19.72669153 152.19910759 18.62975788 152.19530869 C15.04201386 152.80850484 13.40439493 154.25997393 10.75 156.6875 C7.38569224 158.85802114 4.72799633 159.25578519 0.75 158.6875 C-2.0625 156.25 -2.0625 156.25 -4.25 153.6875 C-5.36126659 152.34848208 -5.36126659 152.34848208 -8.19140625 152.58984375 C-9.38636719 152.60144531 -10.58132812 152.61304688 -11.8125 152.625 C-14.9990625 152.6559375 -14.9990625 152.6559375 -18.25 152.6875 Z M269.75 224.6875 C270.08 230.2975 270.41 235.9075 270.75 241.6875 C271.41 241.6875 272.07 241.6875 272.75 241.6875 C272.09 236.0775 271.43 230.4675 270.75 224.6875 C270.42 224.6875 270.09 224.6875 269.75 224.6875 Z M-96.25 244.6875 C-99.21884629 251.88525935 -101.85956515 259.15869614 -104.359375 266.53125 C-104.73104797 267.62215942 -105.10272095 268.71306885 -105.48565674 269.83703613 C-106.2634171 272.1223498 -107.03982796 274.40812315 -107.81494141 276.69433594 C-109.00646262 280.20654968 -110.20414918 283.71662054 -111.40234375 287.2265625 C-112.15922352 289.45299947 -112.91574688 291.67955764 -113.671875 293.90625 C-114.03118103 294.95824585 -114.39048706 296.0102417 -114.76068115 297.09411621 C-115.08812317 298.06272583 -115.41556519 299.03133545 -115.75292969 300.02929688 C-116.04286804 300.88293823 -116.3328064 301.73657959 -116.63153076 302.61608887 C-117.34536465 304.64660557 -117.34536465 304.64660557 -117.25 306.6875 C-109.66 306.6875 -102.07 306.6875 -94.25 306.6875 C-94.25 286.2275 -94.25 265.7675 -94.25 244.6875 C-94.91 244.6875 -95.57 244.6875 -96.25 244.6875 Z M22.75 236.6875 C22.75 237.3475 22.75 238.0075 22.75 238.6875 C22.09 238.6875 21.43 238.6875 20.75 238.6875 C20.75 240.6675 20.75 242.6475 20.75 244.6875 C9.86 244.6875 -1.03 244.6875 -12.25 244.6875 C-9.49708035 258.86374977 -6.39127032 272.90195346 -3 286.9375 C-2.53611391 288.86970901 -2.0725708 290.8020004 -1.609375 292.734375 C-0.49351139 297.38637016 0.62690516 302.03724558 1.75 306.6875 C7.03 306.6875 12.31 306.6875 17.75 306.6875 C19.46361558 298.98903819 20.31154047 291.46333654 20.85546875 283.6015625 C20.94379471 282.38222015 21.03212067 281.16287781 21.12312317 279.90658569 C21.30682339 277.34696435 21.48733136 274.78711208 21.66479492 272.22705078 C21.93816445 268.30296218 22.22526578 264.38004024 22.51367188 260.45703125 C22.69092514 257.96359989 22.86738547 255.47011201 23.04296875 252.9765625 C23.12935104 251.80364655 23.21573334 250.63073059 23.30473328 249.42227173 C23.37843643 248.33368866 23.45213959 247.24510559 23.52807617 246.12353516 C23.59532394 245.16774567 23.66257172 244.21195618 23.7318573 243.22720337 C23.74896502 240.83238213 23.45464772 238.96412501 22.75 236.6875 Z M-24.25 262.6875 C-24.25 277.2075 -24.25 291.7275 -24.25 306.6875 C-19.3 306.6875 -14.35 306.6875 -9.25 306.6875 C-10.49943589 300.67102551 -12.03841607 294.94700985 -14.0703125 289.15234375 C-14.33383514 288.38821671 -14.59735779 287.62408966 -14.86886597 286.83680725 C-15.69963638 284.43124715 -16.53718191 282.02811338 -17.375 279.625 C-17.94446312 277.97997435 -18.51347754 276.3347933 -19.08203125 274.68945312 C-20.46618167 270.68698968 -21.85640724 266.68668506 -23.25 262.6875 C-23.58 262.6875 -23.91 262.6875 -24.25 262.6875 Z M2.75 310.6875 C3.74 314.9775 4.73 319.2675 5.75 323.6875 C8.29173977 323.71466824 10.83318415 323.73441969 13.375 323.75 C14.08785156 323.75837891 14.80070313 323.76675781 15.53515625 323.77539062 C19.72344438 323.79460296 23.6228462 323.5142327 27.75 322.6875 C27.75 321.6975 27.75 320.7075 27.75 319.6875 C21.81 318.2025 21.81 318.2025 15.75 316.6875 C16.08 314.7075 16.41 312.7275 16.75 310.6875 C12.13 310.6875 7.51 310.6875 2.75 310.6875 Z " fill="#6393DF" transform="translate(224.25,186.3125)"/>
<path d="M0 0 C5.94 1.485 5.94 1.485 12 3 C11.67 6.63 11.34 10.26 11 14 C12.28777344 14.19916016 12.28777344 14.19916016 13.6015625 14.40234375 C18.81000993 15.31831209 23.87704552 16.69080052 29 18 C28.34 21.96 27.68 25.92 27 30 C29.31 31.32 31.62 32.64 34 34 C34 37.3 34 40.6 34 44 C14.99544419 44.3690205 14.99544419 44.3690205 7 42 C7.33 42.99 7.66 43.98 8 45 C10.70616135 46.2307265 10.70616135 46.2307265 14 47.125 C15.093125 47.45757813 16.18625 47.79015625 17.3125 48.1328125 C25.56584883 50.07374835 33.73875176 50.15634972 42.1875 50.125 C43.24130859 50.12886719 44.29511719 50.13273438 45.38085938 50.13671875 C50.36086407 50.13044275 55.10850253 50.06447095 60 49 C59.25622096 47.60084188 58.50462905 46.20583617 57.75 44.8125 C57.12351562 43.64654297 57.12351562 43.64654297 56.484375 42.45703125 C54.86149514 39.770738 52.97760461 37.43302072 51 35 C80.39852751 34.74533161 109.65967517 35.03386448 139 37 C139.76103027 37.05091797 140.52206055 37.10183594 141.30615234 37.15429688 C267.69214828 45.75235386 267.69214828 45.75235386 291.51171875 72.7109375 C294.0805132 76.48305427 294.3259438 79.67023578 293.75 84.0078125 C290.66683353 92.19747344 281.49672516 96.43522024 274.00439453 99.93115234 C228.58948368 119.59124038 172.94822556 122.40985039 124.10653687 124.89285278 C122.60806642 124.96907122 121.10972545 125.04785395 119.61148071 125.12838745 C100.76486386 126.12196886 81.92916024 126.20014754 63.0625 126.1875 C62.27078148 126.18738041 61.47906296 126.18726082 60.66335297 126.1871376 C35.3935867 126.18231584 10.21233601 125.85480586 -15 124 C-16.45002868 123.89708082 -17.90006124 123.79421629 -19.35009766 123.69140625 C-141.90082 114.8355927 -141.90082 114.8355927 -166.5 88.5 C-168.94437894 85.40197098 -170.08615432 83.04925319 -170 79 C-167.50539222 71.1835623 -160.57312784 66.62839176 -153.625 62.9375 C-114.43244709 44.53701127 -65.02354109 39.22574191 -22 38 C-21.32694982 39.60149886 -20.66177773 41.20631029 -20 42.8125 C-19.443125 44.15248047 -19.443125 44.15248047 -18.875 45.51953125 C-18 48 -18 48 -18 51 C-15.69 51 -13.38 51 -11 51 C-11.2165625 50.15695312 -11.433125 49.31390625 -11.65625 48.4453125 C-12.07390625 46.80175781 -12.07390625 46.80175781 -12.5 45.125 C-12.91765625 43.48917969 -12.91765625 43.48917969 -13.34375 41.8203125 C-14 39 -14 39 -14 37 C-6.74 36.67 0.52 36.34 8 36 C8 35.01 8 34.02 8 33 C6.4221875 32.814375 6.4221875 32.814375 4.8125 32.625 C1.54041229 32.08859218 -1.00536076 31.36119965 -4 30 C-3.20199736 23.49201728 -2.32833798 16.99587122 -1.4375 10.5 C-1.29892578 9.48679687 -1.16035156 8.47359375 -1.01757812 7.4296875 C-0.67879539 4.95306888 -0.33945494 2.47652657 0 0 Z " fill="#E4EFF8" transform="translate(244,473)"/>
<path d="M0 0 C0.495 1.485 0.495 1.485 1 3 C2.32670979 3.67975243 3.66162008 4.34352349 5 5 C17.92050473 15.98751583 25.24840871 29.72889798 32 45 C36.47452516 55.09878671 40.89510609 64.41999478 48 73 C49.03060547 74.25683594 49.03060547 74.25683594 50.08203125 75.5390625 C62.57696292 90.0827127 77.89880113 100.44782501 96.01025391 106.5300293 C101.46914629 108.44240728 104.34019604 110.68039208 107 116 C108.32421646 127.91794816 100.82642678 139.65698763 94 149 C93.34 149 92.68 149 92 149 C92 150.98 92 152.96 92 155 C81.11 155 70.22 155 59 155 C60.98 162.425 60.98 162.425 63 170 C63.87782558 173.57424959 64.74347123 177.14648582 65.578125 180.73046875 C65.79442566 181.65418777 66.01072632 182.5779068 66.23358154 183.52961731 C66.68169934 185.44727158 67.12858041 187.36521528 67.57421875 189.28344727 C68.2580408 192.22205396 68.94920582 195.15887582 69.640625 198.09570312 C70.07856891 199.97385488 70.51608507 201.85210644 70.953125 203.73046875 C71.26240936 205.03977608 71.26240936 205.03977608 71.57794189 206.37553406 C71.85888702 207.59379631 71.85888702 207.59379631 72.14550781 208.83666992 C72.31109192 209.54643478 72.47667603 210.25619965 72.64727783 210.98747253 C73 213 73 213 73 217 C78.28 217 83.56 217 89 217 C88.67 218.32 88.34 219.64 88 221 C83.71 221.33 79.42 221.66 75 222 C77.475 234.87 77.475 234.87 80 248 C77.69 248 75.38 248 73 248 C72.75765625 247.24976563 72.5153125 246.49953125 72.265625 245.7265625 C70.32567088 239.80224107 68.26931843 233.99269797 65.83203125 228.25390625 C65 226 65 226 64 221 C27.04 221 -9.92 221 -48 221 C-48.66 223.97 -49.32 226.94 -50 230 C-50.45951515 231.60307623 -50.94328553 233.19986637 -51.47265625 234.78125 C-51.73240234 235.55984375 -51.99214844 236.3384375 -52.25976562 237.140625 C-52.52466797 237.91921875 -52.78957031 238.6978125 -53.0625 239.5 C-53.33126953 240.30953125 -53.60003906 241.1190625 -53.87695312 241.953125 C-55.86615044 247.86615044 -55.86615044 247.86615044 -57 249 C-59.33297433 249.04092937 -61.66705225 249.04241723 -64 249 C-63.35227461 243.10300014 -62.31464049 237.4075129 -61 231.625 C-60.82210937 230.81933594 -60.64421875 230.01367188 -60.4609375 229.18359375 C-59.13245631 223.26491261 -59.13245631 223.26491261 -58 221 C-78.13 221 -98.26 221 -119 221 C-119 219.68 -119 218.36 -119 217 C-98.54 217 -78.08 217 -57 217 C-56.01 212.05 -55.02 207.1 -54 202 C-53.11991486 198.07820315 -52.22687084 194.1645111 -51.30078125 190.25390625 C-51.0608696 189.23191635 -50.82095795 188.20992645 -50.57377625 187.15696716 C-49.82233149 183.95826185 -49.06748886 180.76037043 -48.3125 177.5625 C-47.79599653 175.36658994 -47.27971881 173.17062677 -46.76367188 170.97460938 C-45.51171376 165.64912431 -44.25671216 160.32436512 -43 155 C-46.3 155 -49.6 155 -53 155 C-53.18175781 154.09378906 -53.36351563 153.18757812 -53.55078125 152.25390625 C-53.80214844 151.03574219 -54.05351563 149.81757813 -54.3125 148.5625 C-54.55613281 147.36753906 -54.79976563 146.17257812 -55.05078125 144.94140625 C-55.66871138 142.16260294 -56.48382234 139.53684991 -57.43675232 136.85540771 C-59.04293251 132.08509775 -60.05754393 127.31732052 -60.96118164 122.37207031 C-61.13397141 121.4552951 -61.30676117 120.5385199 -61.48478699 119.59396362 C-62.04937492 116.5897951 -62.60490636 113.58403221 -63.16015625 110.578125 C-63.55414681 108.46969506 -63.94864079 106.36135913 -64.34361267 104.25311279 C-65.16857009 99.84262928 -65.98938704 95.43140343 -66.80688477 91.01953125 C-67.84896856 85.3959124 -68.89832779 79.77368445 -69.95044804 74.15193558 C-70.9605117 68.75282761 -71.96662982 63.35298639 -72.97265625 57.953125 C-73.16209368 56.9384037 -73.35153111 55.9236824 -73.54670906 54.87821198 C-81.19026905 13.8836112 -81.19026905 13.8836112 -74.4375 1.375 C-69.54808787 -5.65205366 -62.65780046 -9.59553196 -54.3984375 -11.52734375 C-34.98805188 -14.22694911 -16.36918216 -11.05657658 0 0 Z M-25 155 C-27.96884629 162.19775935 -30.60956515 169.47119614 -33.109375 176.84375 C-33.48104797 177.93465942 -33.85272095 179.02556885 -34.23565674 180.14953613 C-35.0134171 182.4348498 -35.78982796 184.72062315 -36.56494141 187.00683594 C-37.75646262 190.51904968 -38.95414918 194.02912054 -40.15234375 197.5390625 C-40.90922352 199.76549947 -41.66574688 201.99205764 -42.421875 204.21875 C-42.78118103 205.27074585 -43.14048706 206.3227417 -43.51068115 207.40661621 C-43.83812317 208.37522583 -44.16556519 209.34383545 -44.50292969 210.34179688 C-44.79286804 211.19543823 -45.0828064 212.04907959 -45.38153076 212.92858887 C-46.09536465 214.95910557 -46.09536465 214.95910557 -46 217 C-38.41 217 -30.82 217 -23 217 C-23 196.54 -23 176.08 -23 155 C-23.66 155 -24.32 155 -25 155 Z M47 173 C47 187.52 47 202.04 47 217 C51.95 217 56.9 217 62 217 C60.75056411 210.98352551 59.21158393 205.25950985 57.1796875 199.46484375 C56.91616486 198.70071671 56.65264221 197.93658966 56.38113403 197.14930725 C55.55036362 194.74374715 54.71281809 192.34061338 53.875 189.9375 C53.30553688 188.29247435 52.73652246 186.6472933 52.16796875 185.00195312 C50.78381833 180.99948968 49.39359276 176.99918506 48 173 C47.67 173 47.34 173 47 173 Z " fill="#90B0F1" transform="translate(153,276)"/>
<path d="M0 0 C33 0 66 0 100 0 C100 64.35 100 128.7 100 195 C67 195 34 195 0 195 C0 130.65 0 66.3 0 0 Z " fill="#F4F8FE" transform="translate(421,43)"/>
<path d="M0 0 C5.68198505 3.86561278 9.70885691 9.20169706 13.75 14.6875 C12.9375 16.625 12.9375 16.625 11.75 18.6875 C10.265 19.1825 10.265 19.1825 8.75 19.6875 C8.80220703 20.77804688 8.80220703 20.77804688 8.85546875 21.890625 C9.17574176 33.78647963 7.14001449 45.52748344 -0.875 54.6875 C-5.39973037 57.3688217 -9.10839797 57.30697012 -14.25 56.6875 C-15.24 56.3575 -16.23 56.0275 -17.25 55.6875 C-17.37375 56.409375 -17.4975 57.13125 -17.625 57.875 C-18.25 60.6875 -18.25 60.6875 -19.375 62.875 C-22.69561589 73.54840821 -15.71036238 84.31921539 -11.25 93.6875 C-10.49082166 95.31055975 -9.73299709 96.93425345 -8.9765625 98.55859375 C-5.71566772 107.51389115 -5.71566772 107.51389115 0.25390625 113.7578125 C1.26324219 114.10585938 2.27257812 114.45390625 3.3125 114.8125 C4.32441406 115.16570312 5.33632812 115.51890625 6.37890625 115.8828125 C7.16136719 116.14835937 7.94382812 116.41390625 8.75 116.6875 C9.12125 114.8621875 9.12125 114.8621875 9.5 113 C13.22067111 96.21682889 13.22067111 96.21682889 15.75 93.6875 C18.27541002 93.59245749 20.77337126 93.56192842 23.29907227 93.57397461 C24.48435013 93.57375557 24.48435013 93.57375557 25.693573 93.5735321 C28.31787822 93.57423143 30.94211336 93.58202473 33.56640625 93.58984375 C35.38101665 93.59170786 37.19562756 93.5931318 39.01023865 93.59413147 C43.7959023 93.59795721 48.5815358 93.60778796 53.3671875 93.61883545 C58.24674064 93.62904837 63.12629864 93.63362883 68.00585938 93.63867188 C77.58725286 93.64941018 87.16862393 93.66648727 96.75 93.6875 C94.99472385 100.3320258 93.11189793 106.88728888 90.8671875 113.3828125 C90.60745148 114.14173798 90.34771545 114.90066345 90.08010864 115.68258667 C89.5389715 117.26097296 88.99615006 118.83878279 88.45166016 120.41601562 C87.61523754 122.84080133 86.78581803 125.2679076 85.95703125 127.6953125 C85.42749278 129.23711985 84.89755979 130.77879178 84.3671875 132.3203125 C84.1192746 133.04622589 83.87136169 133.77213928 83.61593628 134.52005005 C81.8652008 139.5722992 81.8652008 139.5722992 80.75 140.6875 C79.09863064 140.76868823 77.44382173 140.78103429 75.79052734 140.76586914 C74.20285049 140.75705467 74.20285049 140.75705467 72.58309937 140.74806213 C71.42903595 140.73967819 70.27497253 140.73129425 69.0859375 140.72265625 C66.66015202 140.72637065 64.2343691 140.73230099 61.80859375 140.74023438 C57.96987086 140.75078166 54.13300116 140.75008006 50.29443359 140.71166992 C46.59890612 140.67851655 42.90645846 140.69616264 39.2109375 140.72265625 C37.49806046 140.68882591 37.49806046 140.68882591 35.75057983 140.65431213 C29.73132094 140.685784 29.73132094 140.685784 24.54742432 143.39889526 C22.77698669 145.41485293 21.27232274 147.48135548 19.75 149.6875 C15.04775381 154.90808121 10.88966268 159.0116367 3.6875 160.1875 C-0.27080828 159.5137454 -1.69246711 157.6834671 -4.25 154.6875 C-6.12824891 152.80925109 -9.28935276 153.29647603 -11.8125 153.125 C-13.01003906 153.04121094 -14.20757812 152.95742188 -15.44140625 152.87109375 C-16.36824219 152.81050781 -17.29507813 152.74992188 -18.25 152.6875 C-18.229375 153.88375 -18.20875 155.08 -18.1875 156.3125 C-18.18117429 159.86754869 -18.55111125 163.19305624 -19.25 166.6875 C-23.14402268 165.38949244 -24.5849982 163.03240009 -26.875 159.8125 C-27.31376465 159.19608643 -27.7525293 158.57967285 -28.20458984 157.94458008 C-34.08251534 149.3749832 -38.08648112 139.84545246 -42.27246094 130.37402344 C-48.22126144 116.96165468 -56.49346252 99.56576874 -70.25 92.6875 C-70.01803444 81.08922223 -63.21391642 71.00466517 -55.55859375 62.7734375 C-53.25 60.6875 -53.25 60.6875 -50.29296875 58.81640625 C-44.81792893 54.98598687 -40.28834505 49.12658837 -38.25 42.6875 C-38.63223195 39.00533222 -39.66733104 36.25980004 -41.09375 32.85546875 C-43.41473047 26.49629592 -42.34834325 19.60856523 -39.75 13.4375 C-35.61108681 6.29117507 -28.73677134 0.99272242 -20.984375 -1.6796875 C-13.67624327 -3.37099798 -6.73461876 -3.60783148 0 0 Z M-16.25 138.6875 C-16.25 140.0075 -16.25 141.3275 -16.25 142.6875 C-15.26 142.3575 -14.27 142.0275 -13.25 141.6875 C-14.24 140.6975 -15.23 139.7075 -16.25 138.6875 Z " fill="#FE6B3E" transform="translate(224.25,186.3125)"/>
<path d="M0 0 C0.89137382 0.00092179 1.78274763 0.00184359 2.70113277 0.00279331 C3.72062008 0.00141865 4.74010738 0.00004398 5.79048824 -0.00137234 C6.91833233 0.00222294 8.04617641 0.00581821 9.20819759 0.00952244 C10.38852566 0.00937641 11.56885372 0.00923038 12.7849493 0.00907993 C16.03067141 0.00965888 19.27635088 0.01468796 22.52206445 0.02165389 C25.91068065 0.02788821 29.29929761 0.02849129 32.68791866 0.0296793 C39.10880837 0.03279238 45.52968114 0.04100546 51.95056337 0.05102879 C59.25878857 0.06219063 66.56701457 0.06770055 73.87524617 0.07272422 C88.91259034 0.0831881 103.94991864 0.1007871 118.98725033 0.12304783 C118.83440674 1.56298077 118.67953591 3.00269862 118.52381039 4.44232273 C118.39477133 5.64497084 118.39477133 5.64497084 118.26312542 6.87191486 C117.94337194 9.4810942 117.41386414 11.97010837 116.75287533 14.51367283 C116.51125668 15.45863621 116.26963802 16.40359959 116.02069759 17.37719822 C115.76216 18.36582859 115.5036224 19.35445896 115.23725033 20.37304783 C114.6881771 22.5225587 114.14001495 24.67230248 113.59271908 26.82226658 C113.31992123 27.88880466 113.04712337 28.95534275 112.76605892 30.05420017 C111.65741017 34.4227628 110.59330963 38.80102817 109.54975033 43.18554783 C109.25874447 44.40782078 109.25874447 44.40782078 108.9618597 45.65478611 C106.66435899 55.38613297 104.48645917 65.14556089 102.30976009 74.90454197 C101.87941463 76.82641331 101.87941463 76.82641331 101.44037533 78.78711033 C101.18417416 79.93647068 100.92797298 81.08583103 100.66400814 82.27002048 C99.98725033 85.12304783 99.98725033 85.12304783 98.98725033 88.12304783 C76.87725033 88.12304783 54.76725033 88.12304783 31.98725033 88.12304783 C33.47796231 79.17877592 36.99174929 70.68162223 39.98725033 62.12304783 C21.50725033 61.79304783 3.02725033 61.46304783 -16.01274967 61.12304783 C-14.88803312 49.8758823 -14.88803312 49.8758823 -13.81353092 45.55664158 C-13.57658512 44.58791111 -13.33963932 43.61918064 -13.09551334 42.6210947 C-12.84132633 41.61111423 -12.58713932 40.60113377 -12.32524967 39.56054783 C-11.785849 37.37182906 -11.24679755 35.1830242 -10.70806217 32.99414158 C-10.29088932 31.31167332 -10.29088932 31.31167332 -9.86528873 29.5952158 C-8.99678614 26.05803255 -8.15321841 22.515753 -7.31743717 18.97070408 C-7.04633121 17.82351902 -6.77522526 16.67633396 -6.49590397 15.49438572 C-5.97188134 13.27400264 -5.44985742 11.05314675 -4.929986 8.83178806 C-4.6930402 7.83477879 -4.4560944 6.83776951 -4.21196842 5.81054783 C-4.00402653 4.92754002 -3.79608463 4.0445322 -3.58184147 3.13476658 C-2.74248141 0.16765939 -2.74248141 0.16765939 0 0 Z " fill="#E0EAF8" transform="translate(284.01274967193604,216.87695217132568)"/>
<path d="M0 0 C47.85 0 95.7 0 145 0 C145 1.98 145 3.96 145 6 C134.11 6 123.22 6 112 6 C113.98 13.425 113.98 13.425 116 21 C116.87782558 24.57424959 117.74347123 28.14648582 118.578125 31.73046875 C118.79442566 32.65418777 119.01072632 33.5779068 119.23358154 34.52961731 C119.68169934 36.44727158 120.12858041 38.36521528 120.57421875 40.28344727 C121.2580408 43.22205396 121.94920582 46.15887582 122.640625 49.09570312 C123.07856891 50.97385488 123.51608507 52.85210644 123.953125 54.73046875 C124.26240936 56.03977608 124.26240936 56.03977608 124.57794189 57.37553406 C124.85888702 58.59379631 124.85888702 58.59379631 125.14550781 59.83666992 C125.31109192 60.54643478 125.47667603 61.25619965 125.64727783 61.98747253 C126 64 126 64 126 68 C131.28 68 136.56 68 142 68 C141.67 69.32 141.34 70.64 141 72 C134.565 72.495 134.565 72.495 128 73 C129.65 81.58 131.3 90.16 133 99 C130.69 99 128.38 99 126 99 C125.63648438 97.87464844 125.63648438 97.87464844 125.265625 96.7265625 C123.32567088 90.80224107 121.26931843 84.99269797 118.83203125 79.25390625 C118 77 118 77 117 72 C80.04 72 43.08 72 5 72 C4.34 74.97 3.68 77.94 3 81 C2.54048485 82.60307623 2.05671447 84.19986637 1.52734375 85.78125 C1.26759766 86.55984375 1.00785156 87.3384375 0.74023438 88.140625 C0.47533203 88.91921875 0.21042969 89.6978125 -0.0625 90.5 C-0.33126953 91.30953125 -0.60003906 92.1190625 -0.87695312 92.953125 C-2.86615044 98.86615044 -2.86615044 98.86615044 -4 100 C-6.33297433 100.04092937 -8.66705225 100.04241723 -11 100 C-10.35227461 94.10300014 -9.31464049 88.4075129 -8 82.625 C-7.82210937 81.81933594 -7.64421875 81.01367188 -7.4609375 80.18359375 C-6.13245631 74.26491261 -6.13245631 74.26491261 -5 72 C-25.13 72 -45.26 72 -66 72 C-66 70.68 -66 69.36 -66 68 C-45.54 68 -25.08 68 -4 68 C-2.515 60.575 -2.515 60.575 -1 53 C-0.11991486 49.07820315 0.77312916 45.1645111 1.69921875 41.25390625 C1.9391304 40.23191635 2.17904205 39.20992645 2.42622375 38.15696716 C3.17766851 34.95826185 3.93251114 31.76037043 4.6875 28.5625 C5.20400347 26.36658994 5.72028119 24.17062677 6.23632812 21.97460938 C7.48828624 16.64912431 8.74328784 11.32436512 10 6 C6.7 6 3.4 6 0 6 C0 4.02 0 2.04 0 0 Z M28 6 C25.03115371 13.19775935 22.39043485 20.47119614 19.890625 27.84375 C19.51895203 28.93465942 19.14727905 30.02556885 18.76434326 31.14953613 C17.9865829 33.4348498 17.21017204 35.72062315 16.43505859 38.00683594 C15.24353738 41.51904968 14.04585082 45.02912054 12.84765625 48.5390625 C12.09077648 50.76549947 11.33425312 52.99205764 10.578125 55.21875 C10.21881897 56.27074585 9.85951294 57.3227417 9.48931885 58.40661621 C9.16187683 59.37522583 8.83443481 60.34383545 8.49707031 61.34179688 C8.20713196 62.19543823 7.9171936 63.04907959 7.61846924 63.92858887 C6.90463535 65.95910557 6.90463535 65.95910557 7 68 C14.59 68 22.18 68 30 68 C30 47.54 30 27.08 30 6 C29.34 6 28.68 6 28 6 Z M100 24 C100 38.52 100 53.04 100 68 C104.95 68 109.9 68 115 68 C113.75056411 61.98352551 112.21158393 56.25950985 110.1796875 50.46484375 C109.91616486 49.70071671 109.65264221 48.93658966 109.38113403 48.14930725 C108.55036362 45.74374715 107.71281809 43.34061338 106.875 40.9375 C106.30553688 39.29247435 105.73652246 37.6472933 105.16796875 36.00195312 C103.78381833 31.99948968 102.39359276 27.99918506 101 24 C100.67 24 100.34 24 100 24 Z " fill="#6293DF" transform="translate(100,425)"/>
<path d="M0 0 C3.11911306 6.23822611 1.97973925 14.34117338 0.5 21 C1.09167969 21.21914063 1.68335938 21.43828125 2.29296875 21.6640625 C7.92148025 23.92281263 11.07485842 25.96932331 14.5 31 C23.94834487 59.34503462 -2.26065097 110.03561582 -11.5 137 C-10.59378906 137.10570312 -9.68757813 137.21140625 -8.75390625 137.3203125 C-3.67825386 138.38053281 -0.79924329 141.09029382 2.5 145 C3.94643095 147.73259255 5.12071265 150.48937608 6.27734375 153.35546875 C7.78363343 156.61348188 9.77160669 158.83774466 12.20703125 161.4296875 C14.08981829 163.7163352 14.80637561 166.15614001 15.5 169 C9.70939695 171.50297079 4.12727699 171.30498836 -2.0625 171.25 C-3.67233765 171.24093628 -3.67233765 171.24093628 -5.31469727 171.23168945 C-28.35250304 170.94386951 -28.35250304 170.94386951 -36.5 166 C-36.83 164.68 -37.16 163.36 -37.5 162 C-28.59 162.66 -19.68 163.32 -10.5 164 C-10.5 160.7 -10.5 157.4 -10.5 154 C-11.44875 153.71125 -12.3975 153.4225 -13.375 153.125 C-16.5 152 -16.5 152 -18.5 150 C-18.0390625 147.1796875 -18.0390625 147.1796875 -17.125 143.875 C-16.82851563 142.77929688 -16.53203125 141.68359375 -16.2265625 140.5546875 C-15.98679687 139.71164062 -15.74703125 138.86859375 -15.5 138 C-16.29664063 137.87882813 -17.09328125 137.75765625 -17.9140625 137.6328125 C-28.43848858 135.96836555 -28.43848858 135.96836555 -33.5 134 C-33.57442057 130.13013042 -33.54702186 126.7264085 -32.5 123 C-33.19867188 122.87882813 -33.89734375 122.75765625 -34.6171875 122.6328125 C-35.98230469 122.38144531 -35.98230469 122.38144531 -37.375 122.125 C-38.27992188 121.96257812 -39.18484375 121.80015625 -40.1171875 121.6328125 C-42.5 121 -42.5 121 -44.5 119 C-44.64007568 117.09822083 -44.64007568 117.09822083 -44.48339844 114.75317383 C-44.40276154 113.43589043 -44.40276154 113.43589043 -44.32049561 112.09199524 C-44.21599091 110.66393806 -44.21599091 110.66393806 -44.109375 109.20703125 C-44.04470032 108.22764084 -43.98002563 107.24825043 -43.91339111 106.23918152 C-43.77370796 104.16162707 -43.62875921 102.08442108 -43.47900391 100.00756836 C-43.25223663 96.84370549 -43.04472855 93.6790186 -42.83984375 90.51367188 C-42.70167703 88.49471221 -42.56238962 86.47582887 -42.421875 84.45703125 C-42.36030212 83.51511429 -42.29872925 82.57319733 -42.23529053 81.60273743 C-41.75854856 75.18108099 -41.04792739 69.07925797 -37.625 63.46484375 C-37.27953125 62.88283203 -36.9340625 62.30082031 -36.578125 61.70117188 C-36.22234375 61.11916016 -35.8665625 60.53714844 -35.5 59.9375 C-32.26610631 54.61212072 -29.25800109 49.38405234 -29.125 43 C-29.08246094 42.071875 -29.08246094 42.071875 -29.0390625 41.125 C-29.79799026 37.6262144 -31.16377277 35.72441132 -33.5 33 C-36.49751323 31.35658433 -39.64711238 30.29350897 -42.875 29.1875 C-57.85875603 23.6180891 -72.69044619 14.92872068 -82.5 2 C-80.87972844 0.37972844 -78.93462873 0.54530552 -76.69921875 0.24389648 C-75.15995728 0.03379189 -75.15995728 0.03379189 -73.58959961 -0.18055725 C-71.9055603 -0.40249001 -71.9055603 -0.40249001 -70.1875 -0.62890625 C-69.03064697 -0.78286362 -67.87379395 -0.93682098 -66.68188477 -1.09544373 C-64.21727203 -1.42138748 -61.75233444 -1.74488245 -59.28710938 -2.06616211 C-55.5700589 -2.55331809 -51.85542121 -3.05653054 -48.140625 -3.56054688 C-10.66803992 -8.53443193 -10.66803992 -8.53443193 0 0 Z " fill="#20206B" transform="translate(288.5,353)"/>
<path d="M0 0 C0.77794922 -0.01611328 1.55589844 -0.03222656 2.35742188 -0.04882812 C3.51661133 -0.04979492 3.51661133 -0.04979492 4.69921875 -0.05078125 C5.39233154 -0.05376221 6.08544434 -0.05674316 6.79956055 -0.05981445 C9.3125 0.3125 9.3125 0.3125 17.3125 3.3125 C17.3125 9.9125 17.3125 16.5125 17.3125 23.3125 C10.5625 25.5625 10.5625 25.5625 6.3125 25.3125 C6.3125 26.3025 6.3125 27.2925 6.3125 28.3125 C25.4525 28.3125 44.5925 28.3125 64.3125 28.3125 C59.71721811 50.14008899 59.71721811 50.14008899 58.11425781 56.81323242 C57.92835587 57.59629257 57.74245392 58.37935272 57.55091858 59.18614197 C56.9581286 61.68064032 56.36194531 64.17431226 55.765625 66.66796875 C55.34514231 68.43438183 54.92487904 70.20084715 54.50482178 71.96736145 C53.41543855 76.54612252 52.32314062 81.12418307 51.23016357 85.7020874 C50.10865815 90.40187074 48.99000814 95.10233363 47.87109375 99.80273438 C45.68763714 108.97331148 43.50082596 118.14308362 41.3125 127.3125 C25.4725 127.8075 25.4725 127.8075 9.3125 128.3125 C13.47344048 138.33393157 13.47344048 138.33393157 21.41199493 145.24966431 C27.51219939 146.66760409 33.76101161 146.29597776 39.9765625 146.09375 C41.9800787 146.0863356 43.98363243 146.08599931 45.9871521 146.09240723 C51.23386083 146.09033939 56.47451876 145.99282203 61.71972656 145.87469482 C67.08234984 145.77104321 72.44512192 145.75861523 77.80859375 145.73828125 C88.31201632 145.68512814 98.81130664 145.53102969 109.3125 145.3125 C109.3125 148.6125 109.3125 151.9125 109.3125 155.3125 C38.6925 155.3125 -31.9275 155.3125 -104.6875 155.3125 C-102.7075 153.0025 -100.7275 150.6925 -98.6875 148.3125 C-98.15543945 147.35770752 -97.62337891 146.40291504 -97.07519531 145.41918945 C-92.93185207 141.7634728 -87.80528331 142.58743811 -82.484375 142.60546875 C-80.69498505 142.58278679 -80.69498505 142.58278679 -78.8694458 142.55964661 C-75.05860666 142.5166528 -71.24855786 142.5079197 -67.4375 142.5 C-64.85414548 142.476865 -62.27080989 142.45150177 -59.6875 142.42382812 C-53.35415927 142.36086002 -47.02112885 142.3260187 -40.6875 142.3125 C-40.50179947 141.76570587 -40.31609894 141.21891174 -40.12477112 140.6555481 C-38.19614156 134.97762671 -36.2655252 129.30038374 -34.33374023 123.62353516 C-33.61252408 121.50326689 -32.89181909 119.38282467 -32.17163086 117.26220703 C-31.13789238 114.21861914 -30.10233258 111.17565631 -29.06640625 108.1328125 C-28.74346085 107.18068878 -28.42051544 106.22856506 -28.08778381 105.24758911 C-27.78754807 104.36682709 -27.48731232 103.48606506 -27.17797852 102.57861328 C-26.91372574 101.80139923 -26.64947296 101.02418518 -26.37721252 100.22341919 C-25.6875 98.3125 -25.6875 98.3125 -24.6875 96.3125 C-51.4175 96.6425 -78.1475 96.9725 -105.6875 97.3125 C-107.9975 104.5725 -110.3075 111.8325 -112.6875 119.3125 C-114.0075 118.6525 -115.3275 117.9925 -116.6875 117.3125 C-114.0475 109.3925 -111.4075 101.4725 -108.6875 93.3125 C-96.3125 92.8175 -96.3125 92.8175 -83.6875 92.3125 C-83.23834229 90.40927979 -82.78918457 88.50605957 -82.32641602 86.54516602 C-80.84459415 80.26999613 -79.35945988 73.9956176 -77.87204075 67.72177219 C-76.96999312 63.91644449 -76.06929489 60.11080773 -75.17163086 56.30444336 C-74.30592927 52.63382805 -73.43674817 48.96405299 -72.56510735 45.29484367 C-72.23252201 43.89205461 -71.90120982 42.48896308 -71.5711689 41.0855732 C-71.11010371 39.12600476 -70.64416452 37.16758502 -70.17797852 35.20922852 C-69.91372574 34.09226089 -69.64947296 32.97529327 -69.37721252 31.82447815 C-68.6875 29.3125 -68.6875 29.3125 -67.6875 28.3125 C-65.66255769 28.21840521 -63.6343013 28.19506878 -61.60717773 28.19897461 C-59.65526772 28.19908791 -59.65526772 28.19908791 -57.66392517 28.19920349 C-56.23298098 28.20431091 -54.80203718 28.20952692 -53.37109375 28.21484375 C-51.9152074 28.21670797 -50.45932043 28.21813185 -49.00343323 28.21913147 C-45.16470621 28.22295635 -41.32601681 28.23278636 -37.48730469 28.24383545 C-33.57292184 28.25405022 -29.65853294 28.25862923 -25.74414062 28.26367188 C-18.05857657 28.27440866 -10.37304355 28.29148471 -2.6875 28.3125 C-2.6875 27.3225 -2.6875 26.3325 -2.6875 25.3125 C-4.358125 25.374375 -4.358125 25.374375 -6.0625 25.4375 C-9.6875 25.3125 -9.6875 25.3125 -11.6875 23.3125 C-12.13777679 19.83196051 -12.01157972 16.31883808 -12 12.8125 C-12.02416992 11.34876953 -12.02416992 11.34876953 -12.04882812 9.85546875 C-12.04947266 8.92347656 -12.05011719 7.99148437 -12.05078125 7.03125 C-12.05376221 6.17466797 -12.05674316 5.31808594 -12.05981445 4.43554688 C-11.93695068 3.73494141 -11.81408691 3.03433594 -11.6875 2.3125 C-7.79888407 -0.27991062 -4.5083145 -0.01822277 0 0 Z M-63.6875 33.3125 C-65.52235776 38.81707327 -67.14068434 43.79431276 -68.37109375 49.375 C-68.65718506 50.65914795 -68.94327637 51.9432959 -69.23803711 53.26635742 C-69.53380844 54.61504595 -69.82946078 55.96376059 -70.125 57.3125 C-70.73785731 60.07981118 -71.3534455 62.84651335 -71.96875 65.61328125 C-72.1175914 66.28490799 -72.2664328 66.95653473 -72.41978455 67.64851379 C-73.8791643 74.21828087 -75.45017899 80.75836318 -77.05859375 87.29296875 C-77.82343579 90.45110562 -77.82343579 90.45110562 -77.6875 94.3125 C-59.2075 94.6425 -40.7275 94.9725 -21.6875 95.3125 C-24.3275 102.9025 -26.9675 110.4925 -29.6875 118.3125 C-29.6875 119.3025 -29.6875 120.2925 -29.6875 121.3125 C-7.5775 121.3125 14.5325 121.3125 37.3125 121.3125 C42.74784981 99.57110076 48.00981366 77.83387695 52.90209961 55.97045898 C55.28838213 45.32808624 55.28838213 45.32808624 56.51953125 40.64453125 C57.46684516 37.23479431 57.46684516 37.23479431 57.3125 33.3125 C17.3825 33.3125 -22.5475 33.3125 -63.6875 33.3125 Z M-34.6875 135.3125 C-35.6775 138.6125 -36.6675 141.9125 -37.6875 145.3125 C-34.3875 145.3125 -31.0875 145.3125 -27.6875 145.3125 C-29.02000791 141.7249787 -30.518217 138.4760377 -32.6875 135.3125 C-33.3475 135.3125 -34.0075 135.3125 -34.6875 135.3125 Z " fill="#6E9FE8" transform="translate(345.6875,183.6875)"/>
<path d="M0 0 C1.13072182 0.00539291 1.13072182 0.00539291 2.2842865 0.01089478 C3.46956436 0.01067574 3.46956436 0.01067574 4.67878723 0.01045227 C7.30309245 0.0111516 9.92732759 0.01894489 12.55162048 0.02676392 C14.36623089 0.02862803 16.18084179 0.03005196 17.99545288 0.03105164 C22.78111653 0.03487737 27.56675003 0.04470813 32.35240173 0.05575562 C37.23195488 0.06596854 42.11151287 0.070549 46.99107361 0.07559204 C56.57246709 0.08633035 66.15383816 0.10340744 75.73521423 0.12442017 C73.97993808 6.76894597 72.09711216 13.32420905 69.85240173 19.81973267 C69.59266571 20.57865814 69.33292969 21.33758362 69.06532288 22.11950684 C68.52418573 23.69789312 67.98136429 25.27570295 67.43687439 26.85293579 C66.60045177 29.27772149 65.77103226 31.70482777 64.94224548 34.13223267 C64.41270702 35.67404002 63.88277403 37.21571194 63.35240173 38.75723267 C63.10448883 39.48314606 62.85657593 40.20905945 62.60115051 40.95697021 C60.85041503 46.00921937 60.85041503 46.00921937 59.73521423 47.12442017 C58.08384487 47.2056084 56.42903596 47.21795445 54.77574158 47.20278931 C53.18806473 47.19397484 53.18806473 47.19397484 51.5683136 47.1849823 C49.83721848 47.17240639 49.83721848 47.17240639 48.07115173 47.15957642 C45.64536625 47.16329082 43.21958334 47.16922115 40.79380798 47.17715454 C36.9550851 47.18770183 33.1182154 47.18700023 29.27964783 47.14859009 C25.58412035 47.11543672 21.8916727 47.13308281 18.19615173 47.15957642 C17.0542337 47.13702286 15.91231567 47.1144693 14.73579407 47.0912323 C8.71653517 47.12270417 8.71653517 47.12270417 3.53263855 49.83581543 C1.76220092 51.8517731 0.25753697 53.91827564 -1.26478577 56.12442017 C-5.96703196 61.34500137 -10.12512308 65.44855687 -17.32728577 66.62442017 C-21.28559404 65.95066557 -22.70725287 64.12038727 -25.26478577 61.12442017 C-27.07594532 59.31326061 -29.87756804 59.74242568 -32.32728577 59.56192017 C-33.43201233 59.4781311 -34.53673889 59.39434204 -35.67494202 59.30801392 C-36.52959045 59.24742798 -37.38423889 59.18684204 -38.26478577 59.12442017 C-38.26478577 55.82442017 -38.26478577 52.52442017 -38.26478577 49.12442017 C-36.77978577 48.62942017 -36.77978577 48.62942017 -35.26478577 48.12442017 C-35.81908264 47.17180298 -36.37337952 46.21918579 -36.94447327 45.23770142 C-37.67641765 43.97087459 -38.40817882 42.70394189 -39.13978577 41.43692017 C-39.50459045 40.81108032 -39.86939514 40.18524048 -40.24525452 39.54043579 C-42.20219773 36.14247075 -43.92086316 32.82374398 -45.26478577 29.12442017 C-42.64288348 27.39740514 -39.98945838 25.72605652 -37.32728577 24.06192017 C-36.59187561 23.57658813 -35.85646545 23.0912561 -35.09877014 22.59121704 C-30.22869172 19.5926098 -26.98934655 18.6211298 -21.31166077 19.57949829 C-18.09975332 20.43457671 -15.2497217 21.66370684 -12.26478577 23.12442017 C-12.01728577 21.90754517 -11.76978577 20.69067017 -11.51478577 19.43692017 C-7.20902045 0.01451117 -7.20902045 0.01451117 0 0 Z " fill="#F3F7FE" transform="translate(245.26478576660156,279.8755798339844)"/>
<path d="M0 0 C33 0 66 0 100 0 C100 64.35 100 128.7 100 195 C67 195 34 195 0 195 C0 130.65 0 66.3 0 0 Z M9 9 C9 67.41 9 125.82 9 186 C36.06 186 63.12 186 91 186 C91 127.59 91 69.18 91 9 C63.94 9 36.88 9 9 9 Z " fill="#95BAF9" transform="translate(421,43)"/>
<path d="M0 0 C8.67234262 4.95562435 14.22323939 10.64608752 18 20 C19.2632225 24.95659053 20.13094238 29.96147518 21 35 C23.10868631 46.96783271 23.10868631 46.96783271 28 58 C30.925916 59.462958 32.75617347 59.44523109 36 59 C41.25242837 54.37286072 42.82674292 48.49154713 45 42 C47.44103774 35.37264151 47.44103774 35.37264151 51 33 C54.3125 32.4375 54.3125 32.4375 58 33 C63.70336527 37.11542134 65.7029865 43.36595123 67 50 C67.52369701 53.86028173 67.9893548 57.70549361 68.375 61.58203125 C69.0678118 65.37084578 70.24584398 68.24584398 73 71 C77.455 70.505 77.455 70.505 82 70 C82 80.23 82 90.46 82 101 C54.94 101 27.88 101 0 101 C0 67.67 0 34.34 0 0 Z " fill="#C6DBF4" transform="translate(430,128)"/>
<path d="M0 0 C47.85 0 95.7 0 145 0 C145 1.98 145 3.96 145 6 C134.11 6 123.22 6 112 6 C113.98 13.425 113.98 13.425 116 21 C116.87782558 24.57424959 117.74347123 28.14648582 118.578125 31.73046875 C118.79442566 32.65418777 119.01072632 33.5779068 119.23358154 34.52961731 C119.68169934 36.44727158 120.12858041 38.36521528 120.57421875 40.28344727 C121.2580408 43.22205396 121.94920582 46.15887582 122.640625 49.09570312 C123.07856891 50.97385488 123.51608507 52.85210644 123.953125 54.73046875 C124.26240936 56.03977608 124.26240936 56.03977608 124.57794189 57.37553406 C124.85888702 58.59379631 124.85888702 58.59379631 125.14550781 59.83666992 C125.31109192 60.54643478 125.47667603 61.25619965 125.64727783 61.98747253 C126 64 126 64 126 68 C131.28 68 136.56 68 142 68 C141.67 69.32 141.34 70.64 141 72 C134.565 72.495 134.565 72.495 128 73 C129.65 81.58 131.3 90.16 133 99 C130.69 99 128.38 99 126 99 C125.63648438 97.87464844 125.63648438 97.87464844 125.265625 96.7265625 C123.32567088 90.80224107 121.26931843 84.99269797 118.83203125 79.25390625 C118 77 118 77 117 72 C111.39 72 105.78 72 100 72 C100 70.68 100 69.36 100 68 C104.95 68 109.9 68 115 68 C114.57178955 66.75613525 114.1435791 65.51227051 113.70239258 64.23071289 C112.08645124 59.53344472 110.47552488 54.83446862 108.8659668 50.13500977 C108.17393498 48.11665045 107.48061532 46.09873215 106.78588867 44.08129883 C105.77688627 41.15045648 104.77281604 38.2179601 103.76953125 35.28515625 C103.46723099 34.41045181 103.16493073 33.53574738 102.85346985 32.63453674 C99.95969674 24.147836 97.53881493 15.63197076 95 7 C72.89 7 50.78 7 28 7 C22.95618996 22.21017617 22.95618996 22.21017617 17.91918945 37.42260742 C14.50345094 47.7145741 11.02982132 57.92942087 7 68 C14.59 68 22.18 68 30 68 C30 69.32 30 70.64 30 72 C21.75 72 13.5 72 5 72 C4.34 74.97 3.68 77.94 3 81 C2.54048485 82.60307623 2.05671447 84.19986637 1.52734375 85.78125 C1.26759766 86.55984375 1.00785156 87.3384375 0.74023438 88.140625 C0.47533203 88.91921875 0.21042969 89.6978125 -0.0625 90.5 C-0.33126953 91.30953125 -0.60003906 92.1190625 -0.87695312 92.953125 C-2.86615044 98.86615044 -2.86615044 98.86615044 -4 100 C-6.33297433 100.04092937 -8.66705225 100.04241723 -11 100 C-10.35227461 94.10300014 -9.31464049 88.4075129 -8 82.625 C-7.82210937 81.81933594 -7.64421875 81.01367188 -7.4609375 80.18359375 C-6.13245631 74.26491261 -6.13245631 74.26491261 -5 72 C-25.13 72 -45.26 72 -66 72 C-66 70.68 -66 69.36 -66 68 C-45.54 68 -25.08 68 -4 68 C-2.515 60.575 -2.515 60.575 -1 53 C-0.11991486 49.07820315 0.77312916 45.1645111 1.69921875 41.25390625 C1.9391304 40.23191635 2.17904205 39.20992645 2.42622375 38.15696716 C3.17766851 34.95826185 3.93251114 31.76037043 4.6875 28.5625 C5.20400347 26.36658994 5.72028119 24.17062677 6.23632812 21.97460938 C7.48828624 16.64912431 8.74328784 11.32436512 10 6 C6.7 6 3.4 6 0 6 C0 4.02 0 2.04 0 0 Z " fill="#2A66BC" transform="translate(100,425)"/>
<path d="M0 0 C-1.19395994 7.31290104 -2.46551954 14.60762263 -3.80200195 21.89575195 C-5.6495229 32.01062747 -7.4068738 42.12586484 -8.8125 52.3125 C-8.93616943 53.19405762 -9.05983887 54.07561523 -9.18725586 54.98388672 C-9.81328028 59.70229857 -10.12203303 64.24071182 -10 69 C-9.62875 67.824375 -9.2575 66.64875 -8.875 65.4375 C-4.15626043 51.50075754 0.58755715 37.99902107 13 29 C13.66 29.33 14.32 29.66 15 30 C14.62488281 30.94617188 14.24976563 31.89234375 13.86328125 32.8671875 C10.91234782 40.44506054 8.28861026 48.03260805 6.125 55.875 C5.91012939 56.65343262 5.69525879 57.43186523 5.47387695 58.23388672 C4.38605825 62.06249834 4.38605825 62.06249834 4 66 C4.78375 65.505 5.5675 65.01 6.375 64.5 C9 63 9 63 11 63 C11.24234375 62.27941406 11.4846875 61.55882812 11.734375 60.81640625 C14.85818493 53.86496501 21.29471076 47.58655006 28 44 C35.72248082 41.65596216 42.63897673 42.80502045 49.96875 45.83203125 C52 47 52 47 54 50 C53.12859375 50.14695312 52.2571875 50.29390625 51.359375 50.4453125 C40.55623745 52.47966957 31.53523916 55.85385943 23 63 C23.63808594 63.33773437 24.27617188 63.67546875 24.93359375 64.0234375 C25.75988281 64.46945312 26.58617187 64.91546875 27.4375 65.375 C28.26121094 65.81585938 29.08492187 66.25671875 29.93359375 66.7109375 C32 68 32 68 33 70 C32.00033203 70.24169922 32.00033203 70.24169922 30.98046875 70.48828125 C21.40597622 73.31376086 14.72739969 79.26418966 9.33984375 87.5546875 C6.62219079 92.75728919 4.69472898 98.30187802 2.796875 103.84765625 C2 106 2 106 1 107 C-0.4887186 107.08669432 -1.981445 107.10703494 -3.47265625 107.09765625 C-4.37177734 107.09443359 -5.27089844 107.09121094 -6.19726562 107.08789062 C-7.61555664 107.07532227 -7.61555664 107.07532227 -9.0625 107.0625 C-10.01189453 107.05798828 -10.96128906 107.05347656 -11.93945312 107.04882812 C-14.29303065 107.0370011 -16.64648477 107.02052025 -19 107 C-21.32946792 102.16963145 -21.86795839 97.19395864 -22.5625 91.9375 C-22.69688477 90.9695752 -22.83126953 90.00165039 -22.96972656 89.00439453 C-23.71955158 83.28767648 -24.12164164 77.68083292 -24.20629883 71.91821289 C-24.47694556 56.16778266 -32.0306152 46.62565748 -43 36 C-45.67742654 33.71883259 -48.38728954 31.53800801 -51.19921875 29.42578125 C-51.79347656 28.95527344 -52.38773437 28.48476563 -53 28 C-53 27.67 -53 27.34 -53 27 C-42.73659541 26.33064753 -34.33085006 30.24850929 -26 36 C-25.34 36.66 -24.68 37.32 -24 38 C-23.64808594 36.75605469 -23.29617188 35.51210938 -22.93359375 34.23046875 C-12.92289368 0 -12.92289368 0 0 0 Z " fill="#93B9F8" transform="translate(517,322)"/>
<path d="M0 0 C10.38094701 7.66212756 12.72964865 23.0365915 14.69140625 35.046875 C15.66989542 41.86208627 16 48.04326654 16 55 C25.57 55 35.14 55 45 55 C45 68.5 45 68.5 44.54101562 73.22753906 C44.43950195 74.30213379 44.33798828 75.37672852 44.23339844 76.48388672 C44.12543945 77.56686035 44.01748047 78.64983398 43.90625 79.765625 C43.75881348 81.31032471 43.75881348 81.31032471 43.60839844 82.88623047 C43.24513834 86.67475384 42.87201596 90.46232639 42.5 94.25 C41.675 102.7475 40.85 111.245 40 120 C63.43 120 86.86 120 111 120 C111 121.32 111 122.64 111 124 C78 124 45 124 11 124 C10.01 113.72875 9.02 103.4575 8 92.875 C7.53013672 88.02337158 7.53013672 88.02337158 7.05078125 83.07373047 C6.80446195 80.50490443 6.55835387 77.93605813 6.3125 75.3671875 C6.21569946 74.37430222 6.21569946 74.37430222 6.11694336 73.36135864 C5.92555184 71.39594917 5.7381066 69.43015666 5.55078125 67.46435547 C5.44419189 66.35849091 5.33760254 65.25262634 5.2277832 64.11325073 C5.00458645 61.06268584 4.95945674 58.05745747 5 55 C7.64 55 10.28 55 13 55 C7.03758095 30.31996371 7.03758095 30.31996371 -7.87890625 10.609375 C-10.91322393 9.06053535 -13.95158554 7.52087198 -17 6 C-15.90081184 5.01524786 -14.7954398 4.03739527 -13.6875 3.0625 C-13.07261719 2.51722656 -12.45773437 1.97195313 -11.82421875 1.41015625 C-7.88747076 -1.63302581 -4.6388087 -1.11971244 0 0 Z " fill="#20206B" transform="translate(479,373)"/>
<path d="M0 0 C1.83747325 -0.04159889 3.67461311 -0.10291003 5.51074219 -0.18457031 C20.70339203 -0.84935154 20.70339203 -0.84935154 25.27441406 2.6184082 C27.11433402 5.22172042 28.34282748 7.71839619 29.64648438 10.62475586 C31.99756057 16.02254473 31.99756057 16.02254473 36.54036713 19.36715984 C38.88414107 19.65139131 41.11532877 19.6803913 43.47583008 19.62475586 C44.35438156 19.63567764 45.23293304 19.64659943 46.1381073 19.65785217 C49.03400972 19.68450604 51.92644428 19.65492061 54.82226562 19.62475586 C56.83295765 19.63227498 58.84363935 19.64330942 60.85429382 19.65771484 C66.14007766 19.68614838 71.42465054 19.66685819 76.71038818 19.63763428 C82.10648519 19.61624252 87.50236292 19.63997503 92.8984375 19.65991211 C103.48139304 19.69236178 114.0636178 19.67439698 124.64648438 19.62475586 C124.64648438 22.92475586 124.64648438 26.22475586 124.64648438 29.62475586 C54.02648437 29.62475586 -16.59351563 29.62475586 -89.35351562 29.62475586 C-80.83241798 19.68347527 -80.83241798 19.68347527 -77.41120911 19.26399231 C-76.20985825 19.27065414 -75.00850739 19.27731598 -73.77075195 19.28417969 C-73.10707108 19.28374161 -72.4433902 19.28330353 -71.75959778 19.28285217 C-69.56794723 19.28494066 -67.37706362 19.30827318 -65.18554688 19.33178711 C-63.66526202 19.33738288 -62.14497176 19.34165307 -60.62467957 19.34465027 C-56.62473597 19.35610061 -52.62511956 19.38556914 -48.62530518 19.41876221 C-44.54321723 19.44945917 -40.46107637 19.46315479 -36.37890625 19.47827148 C-28.37029262 19.51043891 -20.36194483 19.56163726 -12.35351562 19.62475586 C-12.78736572 18.95581299 -13.22121582 18.28687012 -13.66821289 17.59765625 C-14.22565186 16.71070068 -14.78309082 15.82374512 -15.35742188 14.90991211 C-16.19382202 13.5971228 -16.19382202 13.5971228 -17.04711914 12.2578125 C-19.0468818 8.22726863 -18.51737797 5.89225111 -17.35351562 1.62475586 C-14.41205851 -1.31670125 -4.14039876 0.07330421 0 0 Z " fill="#2B67BD" transform="translate(330.353515625,309.375244140625)"/>
<path d="M0 0 C5.68198505 3.86561278 9.70885691 9.20169706 13.75 14.6875 C12.9375 16.625 12.9375 16.625 11.75 18.6875 C10.76 19.0175 9.77 19.3475 8.75 19.6875 C8.80220703 20.77804688 8.80220703 20.77804688 8.85546875 21.890625 C9.17574176 33.78647963 7.14001449 45.52748344 -0.875 54.6875 C-5.39973037 57.3688217 -9.10839797 57.30697012 -14.25 56.6875 C-15.24 56.3575 -16.23 56.0275 -17.25 55.6875 C-17.37375 56.409375 -17.4975 57.13125 -17.625 57.875 C-18.25 60.6875 -18.25 60.6875 -19.3125 63.0625 C-20.4903651 66.36052227 -20.38626854 69.21265231 -20.25 72.6875 C-31.12204692 70.87549218 -40.27716559 66.29793284 -48.25 58.6875 C-47.77949219 57.96304688 -47.30898437 57.23859375 -46.82421875 56.4921875 C-44.94315955 53.57128812 -43.09642712 50.6303706 -41.25 47.6875 C-40.54875 46.615 -39.8475 45.5425 -39.125 44.4375 C-38.05403706 41.07161649 -38.84662153 39.7244576 -40.40234375 36.66015625 C-43.33545649 29.83424872 -42.6931419 21.55531825 -40.25 14.6875 C-36.11060396 7.06015385 -28.86791695 0.85649567 -20.57421875 -1.83203125 C-13.43209196 -3.30847091 -6.53788826 -3.52353479 0 0 Z " fill="#FE9EB6" transform="translate(224.25,186.3125)"/>
<path d="M0 0 C1.9375 0.8125 1.9375 0.8125 4 2 C4.495 3.485 4.495 3.485 5 5 C5.56976563 4.84144531 6.13953125 4.68289063 6.7265625 4.51953125 C12.02331051 3.30910602 16.50960152 3.22720079 21.375 5.75 C25.68217054 9.44186047 25.68217054 9.44186047 27 12 C26.90714569 15.52846378 25.96170195 17.05294142 23.875 19.9375 C21.66127284 22.88419579 21.66127284 22.88419579 22.25 26.375 C22.4975 27.24125 22.745 28.1075 23 29 C20.525 28.01 20.525 28.01 18 27 C17.77699219 27.53882813 17.55398437 28.07765625 17.32421875 28.6328125 C15.56989848 31.76885404 13.24830156 34.26389918 10.8125 36.875 C10.31999756 37.40657715 9.82749512 37.9381543 9.32006836 38.48583984 C-1.82250975 50.3778206 -1.82250975 50.3778206 -8.9375 51.4375 C-13.02249623 50.85392911 -14.37463294 49.07542999 -17 46 C-18.81115956 44.18884044 -21.61278227 44.61800552 -24.0625 44.4375 C-25.16722656 44.35371094 -26.27195313 44.26992188 -27.41015625 44.18359375 C-28.26480469 44.12300781 -29.11945313 44.06242187 -30 44 C-30 40.7 -30 37.4 -30 34 C-28.515 33.505 -28.515 33.505 -27 33 C-27.55429688 32.04738281 -28.10859375 31.09476562 -28.6796875 30.11328125 C-29.41163189 28.84645443 -30.14339305 27.57952173 -30.875 26.3125 C-31.23980469 25.68666016 -31.60460937 25.06082031 -31.98046875 24.41601562 C-33.93741197 21.01805058 -35.65607739 17.69932381 -37 14 C-34.37809772 12.27298498 -31.72467262 10.60163636 -29.0625 8.9375 C-28.32708984 8.45216797 -27.59167969 7.96683594 -26.83398438 7.46679688 C-21.94142754 4.45434922 -18.68636681 3.46069095 -12.98852539 4.50561523 C-10.6658647 5.08307231 -8.42323977 5.70387638 -6.1875 6.5625 C-3.04107456 7.76031952 -1.53855845 8 2 8 C1.67 7.236875 1.34 6.47375 1 5.6875 C0 3 0 3 0 0 Z " fill="#FD9EB7" transform="translate(237,295)"/>
<path d="M0 0 C5.68198505 3.86561278 9.70885691 9.20169706 13.75 14.6875 C12.8984375 16.6328125 12.8984375 16.6328125 11.75 18.6875 C8.83577389 19.76116225 7.434336 20.00125694 4.5859375 18.6953125 C3.67714844 18.19644531 3.67714844 18.19644531 2.75 17.6875 C2.34007812 18.18121094 1.93015625 18.67492187 1.5078125 19.18359375 C0.96898437 19.82425781 0.43015625 20.46492188 -0.125 21.125 C-0.65867188 21.76308594 -1.19234375 22.40117187 -1.7421875 23.05859375 C-3.25 24.6875 -3.25 24.6875 -5.25 25.6875 C-8.07823491 25.71805192 -10.89205732 25.62032706 -13.71875 25.52734375 C-16.42155657 25.41835981 -16.42155657 25.41835981 -18.25 27.6875 C-18.7434134 29.72158189 -18.7434134 29.72158189 -19.0625 32 C-19.98302157 36.53685633 -21.53222163 38.78581932 -25.25 41.6875 C-27.86327485 42.55859162 -29.55711171 42.87629799 -32.25 42.9375 C-32.930625 42.96328125 -33.61125 42.9890625 -34.3125 43.015625 C-36.89215961 42.57874716 -37.66342362 41.74366651 -39.25 39.6875 C-42.98408761 31.8785152 -42.97393566 23.65417553 -40.59765625 15.4296875 C-37.42709684 7.97814235 -30.72493013 2.52932436 -23.5 -0.8125 C-15.67690711 -3.50928047 -7.42676753 -3.97862546 0 0 Z " fill="#9B240D" transform="translate(224.25,186.3125)"/>
<path d="M0 0 C0.66 0.99 1.32 1.98 2 3 C0.69289063 3.22042969 0.69289063 3.22042969 -0.640625 3.4453125 C-11.44376255 5.47966957 -20.46476084 8.85385943 -29 16 C-28.36191406 16.33773438 -27.72382812 16.67546875 -27.06640625 17.0234375 C-26.24011719 17.46945312 -25.41382813 17.91546875 -24.5625 18.375 C-23.73878906 18.81585938 -22.91507813 19.25671875 -22.06640625 19.7109375 C-20 21 -20 21 -19 23 C-19.66644531 23.16113281 -20.33289063 23.32226562 -21.01953125 23.48828125 C-30.81666401 26.37946308 -38.49389605 33.07276519 -43.5 42 C-43.995 42.99 -44.49 43.98 -45 45 C-45.46019531 45.43957031 -45.92039062 45.87914062 -46.39453125 46.33203125 C-48.52539925 48.54585275 -49.75237568 50.97670961 -51.1875 53.6875 C-51.71730469 54.68136719 -52.24710938 55.67523438 -52.79296875 56.69921875 C-53.19128906 57.45847656 -53.58960938 58.21773438 -54 59 C-56.31 59 -58.62 59 -61 59 C-60.41779789 45.26003015 -57.76629315 28.30701127 -47.28515625 18.375 C-45.1908831 16.90030399 -43.59399181 16 -41 16 C-40.75765625 15.27941406 -40.5153125 14.55882812 -40.265625 13.81640625 C-37.14181507 6.86496501 -30.70528924 0.58655006 -24 -3 C-15.71714877 -5.51412948 -7.46856174 -4.294423 0 0 Z " fill="#93B9F8" transform="translate(569,369)"/>
<path d="M0 0 C5.94 1.485 5.94 1.485 12 3 C11.67 6.63 11.34 10.26 11 14 C11.85851562 14.13277344 12.71703125 14.26554687 13.6015625 14.40234375 C18.81000993 15.31831209 23.87704552 16.69080052 29 18 C28.34 21.96 27.68 25.92 27 30 C29.31 31.32 31.62 32.64 34 34 C34 37.3 34 40.6 34 44 C14.99544419 44.3690205 14.99544419 44.3690205 7 42 C7.33 39.03 7.66 36.06 8 33 C6.4221875 32.814375 6.4221875 32.814375 4.8125 32.625 C1.54041229 32.08859218 -1.00536076 31.36119965 -4 30 C-3.20199736 23.49201728 -2.32833798 16.99587122 -1.4375 10.5 C-1.29892578 9.48679687 -1.16035156 8.47359375 -1.01757812 7.4296875 C-0.67879539 4.95306888 -0.33945494 2.47652657 0 0 Z " fill="#FD9CB5" transform="translate(244,473)"/>
<path d="M0 0 C1.83747325 -0.04159889 3.67461311 -0.10291003 5.51074219 -0.18457031 C20.67044662 -0.84790996 20.67044662 -0.84790996 25.27441406 2.58325195 C27.14843694 5.20637612 28.3627195 7.66782533 29.64648438 10.62475586 C31.27351581 13.64710807 32.95716832 16.63684134 34.64648438 19.62475586 C28.06366627 19.87876083 21.48211353 20.05359733 14.89550781 20.17407227 C12.65642079 20.22429781 10.41766075 20.29249596 8.1796875 20.37915039 C4.95686336 20.5007934 1.73837592 20.55722172 -1.48632812 20.60131836 C-2.981978 20.67873764 -2.981978 20.67873764 -4.50784302 20.75772095 C-7.43867271 20.76007462 -9.60200872 20.64567923 -12.35351562 19.62475586 C-15.67530783 16.09890278 -18.17264127 12.13894464 -18.52566528 7.23184204 C-17.46243112 -2.59889097 -7.9828751 0.14133382 0 0 Z " fill="#2076DD" transform="translate(330.353515625,309.375244140625)"/>
<path d="M0 0 C0.66 0.33 1.32 0.66 2 1 C1.47212891 2.31484375 1.47212891 2.31484375 0.93359375 3.65625 C-2.36672649 12.07478666 -5.06988068 20.53953893 -7.5 29.25 C-9.61854614 36.81673772 -11.92425684 43.46899777 -15.71875 50.3515625 C-18.11463452 55.30403112 -19.00949836 60.62111695 -20 66 C-20.30744141 67.61648438 -20.30744141 67.61648438 -20.62109375 69.265625 C-21.09983687 71.84093284 -21.5601485 74.41781295 -22 77 C-19.69 77 -17.38 77 -15 77 C-14.773125 76.175 -14.54625 75.35 -14.3125 74.5 C-12.72573768 70.26863382 -10.49251763 66.74828987 -8 63 C-6.74849324 66.75452027 -7.48348145 67.98785841 -8.875 71.625 C-9.42800781 73.09839844 -9.42800781 73.09839844 -9.9921875 74.6015625 C-11 77 -11 77 -12 78 C-13.4887186 78.08669432 -14.981445 78.10703494 -16.47265625 78.09765625 C-17.37177734 78.09443359 -18.27089844 78.09121094 -19.19726562 78.08789062 C-20.61555664 78.07532227 -20.61555664 78.07532227 -22.0625 78.0625 C-23.01189453 78.05798828 -23.96128906 78.05347656 -24.93945312 78.04882812 C-27.29303065 78.0370011 -29.64648477 78.02052025 -32 78 C-34.33089925 73.15578329 -34.91212719 68.14524817 -35.625 62.875 C-35.82283081 61.43229736 -35.82283081 61.43229736 -36.0246582 59.96044922 C-37.21048162 50.61643668 -37.29309287 41.40068255 -37 32 C-29.00449311 39.99550689 -27.95257104 57.68398665 -27.87036133 68.24609375 C-27.87691385 71.16506846 -27.9273523 74.0819841 -28 77 C-26.35 77 -24.7 77 -23 77 C-23.02618408 76.09983154 -23.05236816 75.19966309 -23.0793457 74.2722168 C-23.94921028 39.78814242 -23.94921028 39.78814242 -18 25 C-17.73767578 24.34531738 -17.47535156 23.69063477 -17.20507812 23.01611328 C-13.41646732 13.94661512 -8.30821447 5.53880964 0 0 Z " fill="#5B8DF2" transform="translate(530,351)"/>
<path d="M0 0 C6.01820128 1.90576374 10.18218374 5.2173592 13.15625 10.8515625 C13.9677113 12.73977052 14.75822588 14.63712073 15.52734375 16.54296875 C17.03363343 19.80098188 19.02160669 22.02524466 21.45703125 24.6171875 C23.33981829 26.9038352 24.05637561 29.34364001 24.75 32.1875 C18.95939695 34.69047079 13.37727699 34.49248836 7.1875 34.4375 C5.57766235 34.42843628 5.57766235 34.42843628 3.93530273 34.41918945 C-19.10250304 34.13136951 -19.10250304 34.13136951 -27.25 29.1875 C-27.58 27.8675 -27.91 26.5475 -28.25 25.1875 C-19.34 25.8475 -10.43 26.5075 -1.25 27.1875 C-1.25 23.8875 -1.25 20.5875 -1.25 17.1875 C-2.19875 16.89875 -3.1475 16.61 -4.125 16.3125 C-7.25 15.1875 -7.25 15.1875 -9.25 13.1875 C-9.03585787 8.92112984 -7.86268685 5.14056844 -5.5625 1.5625 C-3.25 0.1875 -3.25 0.1875 0 0 Z " fill="#A6121D" transform="translate(279.25,489.8125)"/>
<path d="M0 0 C0.77794922 -0.01611328 1.55589844 -0.03222656 2.35742188 -0.04882812 C3.13021484 -0.04947266 3.90300781 -0.05011719 4.69921875 -0.05078125 C5.39233154 -0.05376221 6.08544434 -0.05674316 6.79956055 -0.05981445 C9.3125 0.3125 9.3125 0.3125 17.3125 3.3125 C17.3125 9.9125 17.3125 16.5125 17.3125 23.3125 C10.5625 25.5625 10.5625 25.5625 6.3125 25.3125 C6.3125 26.3025 6.3125 27.2925 6.3125 28.3125 C3.3425 28.3125 0.3725 28.3125 -2.6875 28.3125 C-2.6875 27.3225 -2.6875 26.3325 -2.6875 25.3125 C-4.358125 25.374375 -4.358125 25.374375 -6.0625 25.4375 C-9.6875 25.3125 -9.6875 25.3125 -11.6875 23.3125 C-12.13777679 19.83196051 -12.01157972 16.31883808 -12 12.8125 C-12.02416992 11.34876953 -12.02416992 11.34876953 -12.04882812 9.85546875 C-12.04947266 8.92347656 -12.05011719 7.99148437 -12.05078125 7.03125 C-12.05376221 6.17466797 -12.05674316 5.31808594 -12.05981445 4.43554688 C-11.93695068 3.73494141 -11.81408691 3.03433594 -11.6875 2.3125 C-7.79888407 -0.27991062 -4.5083145 -0.01822277 0 0 Z " fill="#2E3886" transform="translate(345.6875,183.6875)"/>
<path d="M0 0 C-1.18525858 7.24397347 -2.43670394 14.47274606 -3.7512207 21.69433594 C-6.42972063 36.42556135 -8.80522482 51.18945604 -11 66 C-11.33 66 -11.66 66 -12 66 C-12.20753906 65.11699219 -12.41507812 64.23398437 -12.62890625 63.32421875 C-14.29248068 56.84393507 -15.85606666 51.76526808 -19.8125 46.25 C-22.19538711 42.72947646 -23.52222375 40.48025921 -23.25 36.1875 C-21.34628542 26.37244694 -13.33029165 0 0 0 Z " fill="#5B8EF3" transform="translate(517,322)"/>
<path d="M0 0 C0.495 0.99 0.495 0.99 1 2 C19.81 2 38.62 2 58 2 C55.03 10.91 52.06 19.82 49 29 C70.78 29 92.56 29 115 29 C115 29.33 115 29.66 115 30 C92.89 30 70.78 30 48 30 C46.68 35.28 45.36 40.56 44 46 C43.01 48.31 42.02 50.62 41 53 C21.86 53 2.72 53 -17 53 C-16.67 52.34 -16.34 51.68 -16 51 C10.73 50.505 10.73 50.505 38 50 C42.89303629 35.61014817 42.89303629 35.61014817 47.78295898 21.21923828 C48.3955574 19.41955783 49.00826168 17.6199134 49.62109375 15.8203125 C49.93985474 14.88050537 50.25861572 13.94069824 50.58703613 12.97241211 C50.8914563 12.0793335 51.19587646 11.18625488 51.50952148 10.26611328 C51.77377426 9.48889923 52.03802704 8.71168518 52.31028748 7.91091919 C53 6 53 6 54 4 C27.27 4.33 0.54 4.66 -27 5 C-29.31 12.26 -31.62 19.52 -34 27 C-35.32 26.34 -36.64 25.68 -38 25 C-35.36 17.08 -32.72 9.16 -30 1 C-25.978125 0.979375 -21.95625 0.95875 -17.8125 0.9375 C-16.55284424 0.928396 -15.29318848 0.91929199 -13.99536133 0.90991211 C-12.49138794 0.90616577 -12.49138794 0.90616577 -10.95703125 0.90234375 C-9.93585205 0.89710693 -8.91467285 0.89187012 -7.86254883 0.88647461 C-5.13098384 0.99480533 -2.65830626 1.38293132 0 2 C0 1.34 0 0.68 0 0 Z " fill="#97BBF8" transform="translate(267,276)"/>
<path d="M0 0 C10.38094701 7.66212756 12.72964865 23.0365915 14.69140625 35.046875 C15.65336135 41.74692589 16.23738375 48.23456319 16 55 C15.01 55 14.02 55 13 55 C12.7369104 54.06486572 12.7369104 54.06486572 12.46850586 53.11083984 C6.59047384 29.45641461 6.59047384 29.45641461 -7.87890625 10.609375 C-10.91322393 9.06053535 -13.95158554 7.52087198 -17 6 C-15.90081184 5.01524786 -14.7954398 4.03739527 -13.6875 3.0625 C-13.07261719 2.51722656 -12.45773437 1.97195313 -11.82421875 1.41015625 C-7.88747076 -1.63302581 -4.6388087 -1.11971244 0 0 Z " fill="#5A8EF3" transform="translate(479,373)"/>
<path d="M0 0 C2.19141367 2.19141367 2.97295442 3.92648446 4.20703125 6.75390625 C4.62919922 7.69041016 5.05136719 8.62691406 5.48632812 9.59179688 C6.36996363 11.57119247 7.2423994 13.55562615 8.10351562 15.54492188 C8.52955078 16.48013672 8.95558594 17.41535156 9.39453125 18.37890625 C9.77456299 19.2407251 10.15459473 20.10254395 10.54614258 20.99047852 C11.85642876 23.24836956 11.85642876 23.24836956 14.53442383 23.66967773 C15.34806396 23.77868408 16.1617041 23.88769043 17 24 C20.71383278 27.44553307 23.60759739 31.84426517 24.24365234 36.95947266 C24.36483785 42.02166725 23.70975234 46.99771994 23 52 C22.81958459 53.40094812 22.63987636 54.80198752 22.4609375 56.203125 C22.01684325 59.47749156 21.53230296 62.73899837 21 66 C17.41319332 64.80439777 16.80565214 64.27748623 15 61 C14.33083513 57.86013232 14.02778561 54.68985285 13.6875 51.5 C11.80647804 36.46746689 7.07827505 22.44946178 1.82885742 8.29003906 C0.7596159 5.37699302 0 3.13151662 0 0 Z " fill="#FD542E" transform="translate(184,287)"/>
<path d="M0 0 C0.66 0.99 1.32 1.98 2 3 C0.69289063 3.22042969 0.69289063 3.22042969 -0.640625 3.4453125 C-10.2396238 5.25291617 -20.00814106 7.72235795 -27.0625 14.9375 C-31.13582687 17.79749546 -34.01850489 17.07735997 -38.8046875 16.39453125 C-39.52914062 16.26433594 -40.25359375 16.13414062 -41 16 C-38.30560701 7.98848043 -31.41044554 0.96372669 -24 -3 C-15.71714877 -5.51412948 -7.46856174 -4.294423 0 0 Z " fill="#5B8EF3" transform="translate(569,369)"/>
<path d="M0 0 C5.94 1.485 5.94 1.485 12 3 C11.67 6.63 11.34 10.26 11 14 C12.32 14.33 13.64 14.66 15 15 C14.01 15 13.02 15 12 15 C11.95101562 15.70125 11.90203125 16.4025 11.8515625 17.125 C11.39116058 22.96734159 10.59596049 28.36093962 9 34 C4.71 32.68 0.42 31.36 -4 30 C-3.20199736 23.49201728 -2.32833798 16.99587122 -1.4375 10.5 C-1.29892578 9.48679687 -1.16035156 8.47359375 -1.01757812 7.4296875 C-0.67879539 4.95306888 -0.33945494 2.47652657 0 0 Z " fill="#F67FA4" transform="translate(244,473)"/>
<path d="M0 0 C33 0 66 0 100 0 C100 1.32 100 2.64 100 4 C87.55230133 4.09261587 75.10468442 4.16372241 62.65671158 4.20724869 C56.87681166 4.22813748 51.0971472 4.25647912 45.31738281 4.30175781 C39.74122549 4.34516886 34.16529487 4.36912737 28.58898163 4.37950897 C26.45986104 4.38690882 24.33075309 4.40135875 22.20172882 4.42292023 C19.22307875 4.45189078 16.24536949 4.45595861 13.26660156 4.45410156 C11.94166687 4.47567322 11.94166687 4.47567322 10.58996582 4.49768066 C9.77670837 4.49218201 8.96345093 4.48668335 8.12554932 4.48101807 C7.06917456 4.48654882 7.06917456 4.48654882 5.99145889 4.49219131 C4 4 4 4 0 0 Z " fill="#2A66BB" transform="translate(285,493)"/>
<path d="M0 0 C23.76 0 47.52 0 72 0 C72 1.32 72 2.64 72 4 C48.24 4 24.48 4 0 4 C0 2.68 0 1.36 0 0 Z " fill="#2A66BB" transform="translate(518,493)"/>
<path d="M0 0 C6.27 0 12.54 0 19 0 C19.33 1.32 19.66 2.64 20 4 C10.15533981 13 10.15533981 13 5 13 C4.16209211 11.21046815 3.32980604 9.41830305 2.5 7.625 C1.80390625 6.12839844 1.80390625 6.12839844 1.09375 4.6015625 C0 2 0 2 0 0 Z " fill="#F3F1F9" transform="translate(226,314)"/>
<path d="M0 0 C0.99 0 1.98 0 3 0 C2.62718564 1.39641869 2.25144541 2.79205579 1.875 4.1875 C1.60171875 5.20328125 1.3284375 6.2190625 1.046875 7.265625 C0.28018301 10.0005412 -0.52001799 12.70957259 -1.359375 15.421875 C-5.2091439 28.05542808 -7.74613935 40.71253202 -9.921875 53.734375 C-10.78058825 58.87115424 -11.81326666 63.9294121 -13 69 C-13.33 69 -13.66 69 -14 69 C-13.2969109 47.06362007 -10.5011222 19.4996448 0 0 Z " fill="#19195C" transform="translate(269,407)"/>
<path d="M0 0 C0.66 0.33 1.32 0.66 2 1 C-0.31 7.6 -2.62 14.2 -5 21 C16.78 21 38.56 21 61 21 C61 21.33 61 21.66 61 22 C38.89 22 16.78 22 -6 22 C-6.66 24.64 -7.32 27.28 -8 30 C-8.99 30 -9.98 30 -11 30 C-9.6368975 23.29353571 -7.7740042 16.95094079 -5.5 10.5 C-5.19191406 9.59507812 -4.88382812 8.69015625 -4.56640625 7.7578125 C-4.26605469 6.89929688 -3.96570313 6.04078125 -3.65625 5.15625 C-3.38619141 4.38087891 -3.11613281 3.60550781 -2.83789062 2.80664062 C-2 1 -2 1 0 0 Z " fill="#A0C1F5" transform="translate(321,284)"/>
<path d="M0 0 C11.55 0 23.1 0 35 0 C35 1.32 35 2.64 35 4 C23.45 4 11.9 4 0 4 C0 2.68 0 1.36 0 0 Z " fill="#2A66BB" transform="translate(455,493)"/>
<path d="M0 0 C2.31 0.66 4.62 1.32 7 2 C7 8.6 7 15.2 7 22 C5.02 22.66 3.04 23.32 1 24 C0.34 23.67 -0.32 23.34 -1 23 C-0.34 22.34 0.32 21.68 1 21 C1.29315936 18.9990311 1.29315936 18.9990311 1.23046875 16.71875 C1.22853516 15.87699219 1.22660156 15.03523437 1.22460938 14.16796875 C1.20624023 12.84732422 1.20624023 12.84732422 1.1875 11.5 C1.18685547 10.61957031 1.18621094 9.73914063 1.18554688 8.83203125 C1.3083811 4.26237826 1.3083811 4.26237826 0 0 Z " fill="#122163" transform="translate(356,185)"/>
<path d="M0 0 C1.9375 0.8125 1.9375 0.8125 3.9375 2.8125 C4.25287716 7.14893601 4.38647847 9.13903229 1.9375 12.8125 C-0.5625 13.125 -0.5625 13.125 -3.0625 12.8125 C-5.0625 10.8125 -5.0625 10.8125 -5.375 6.875 C-5.30258358 4.21973143 -5.20891341 3.05408213 -3.8125 0.75 C-2.0625 -0.1875 -2.0625 -0.1875 0 0 Z " fill="#9196BF" transform="translate(347.0625,190.1875)"/>
<path d="M0 0 C5 0 5 0 7.01953125 1.93359375 C7.61121094 2.75988281 8.20289063 3.58617187 8.8125 4.4375 C9.41707031 5.26121094 10.02164063 6.08492188 10.64453125 6.93359375 C12 9 12 9 12 10 C8.04 10 4.08 10 0 10 C0 6.7 0 3.4 0 0 Z " fill="#2E66BA" transform="translate(207,329)"/>
<path d="M0 0 C4.62 0.66 9.24 1.32 14 2 C13.67 3.98 13.34 5.96 13 8 C8.71 6.68 4.42 5.36 0 4 C0 2.68 0 1.36 0 0 Z " fill="#A91521" transform="translate(240,499)"/>
<path d="M0 0 C3.55736507 1.4671173 5.44195167 3.3706419 7.8125 6.375 C8.43769531 7.14585937 9.06289062 7.91671875 9.70703125 8.7109375 C11 11 11 11 10.69921875 13.2890625 C10.46847656 13.85367187 10.23773438 14.41828125 10 15 C8.72403068 13.60886005 7.45445352 12.21185587 6.1875 10.8125 C5.47980469 10.03519531 4.77210938 9.25789063 4.04296875 8.45703125 C2.06664371 6.08015085 0.51417406 3.68921134 -1 1 C-0.67 0.67 -0.34 0.34 0 0 Z " fill="#AC202B" transform="translate(237,295)"/>
<path d="M0 0 C1.12894876 0.93274109 2.25300876 1.87140122 3.375 2.8125 C4.00148437 3.33457031 4.62796875 3.85664063 5.2734375 4.39453125 C7 6 7 6 9 9 C8.34 10.32 7.68 11.64 7 13 C1.26598465 7.56777494 1.26598465 7.56777494 0 4 C0 2.68 0 1.36 0 0 Z " fill="#FF89A5" transform="translate(199,233)"/>
<path d="M0 0 C0.33 0 0.66 0 1 0 C1.20413361 5.73842251 1.27141454 10.60539047 -1 16 C-2.65 16 -4.3 16 -6 16 C-4.9427871 13.23498164 -3.80669719 10.6288586 -2.4375 8 C-1.1228515 5.25638574 -0.43974973 2.99029816 0 0 Z " fill="#19195C" transform="translate(289,358)"/>
<path d="M0 0 C2.80848017 1.40424009 2.92414585 3.10864198 4 6 C4.65213539 7.34050052 5.31379969 8.67661368 6 10 C1.125 9.125 1.125 9.125 0 8 C-0.14115161 5.32941149 -0.04247107 2.67567762 0 0 Z " fill="#A8ACCC" transform="translate(342,193)"/>
<path d="M0 0 C2.97 0 5.94 0 9 0 C9 0.99 9 1.98 9 3 C6.03 3 3.06 3 0 3 C0 2.01 0 1.02 0 0 Z " fill="#1E2B7A" transform="translate(343,209)"/>
<path d="M0 0 C0.99 0.33 1.98 0.66 3 1 C2.67 2.32 2.34 3.64 2 5 C1.01 5 0.02 5 -1 5 C-0.67 3.35 -0.34 1.7 0 0 Z " fill="#142469" transform="translate(346,194)"/>
</svg>
